<mxfile host="app.diagrams.net" modified="2024-06-01T12:19:56.641Z" agent="Mozilla/5.0 (Windows NT 10.0; Win64; x64) AppleWebKit/537.36 (KHTML, like Gecko) Chrome/125.0.0.0 Safari/537.36" etag="IG-VRvTTQWI3BQCIEq5t" version="24.4.13" type="github">
  <diagram name="페이지-1" id="geKBbEWEFcXSWuYg8slL">
    <mxGraphModel dx="4692" dy="3264" grid="1" gridSize="10" guides="1" tooltips="1" connect="1" arrows="1" fold="1" page="1" pageScale="1" pageWidth="827" pageHeight="1169" math="0" shadow="0">
      <root>
        <mxCell id="0" />
        <mxCell id="1" parent="0" />
        <mxCell id="P_y4aerGXSMcK7ylAQnV-1" value="운항" style="whiteSpace=wrap;html=1;align=center;" parent="1" vertex="1">
          <mxGeometry x="-40" y="440" width="100" height="40" as="geometry" />
        </mxCell>
        <mxCell id="P_y4aerGXSMcK7ylAQnV-2" value="" style="endArrow=none;html=1;rounded=0;entryX=0;entryY=0;entryDx=0;entryDy=0;exitX=0.5;exitY=1;exitDx=0;exitDy=0;" parent="1" source="P_y4aerGXSMcK7ylAQnV-4" target="P_y4aerGXSMcK7ylAQnV-1" edge="1">
          <mxGeometry relative="1" as="geometry">
            <mxPoint x="-120" y="350" as="sourcePoint" />
            <mxPoint x="10" y="430" as="targetPoint" />
          </mxGeometry>
        </mxCell>
        <mxCell id="P_y4aerGXSMcK7ylAQnV-4" value="이룩시간" style="ellipse;whiteSpace=wrap;html=1;align=center;" parent="1" vertex="1">
          <mxGeometry x="-170" y="360" width="100" height="40" as="geometry" />
        </mxCell>
        <mxCell id="P_y4aerGXSMcK7ylAQnV-5" value="" style="endArrow=none;html=1;rounded=0;entryX=0.25;entryY=0;entryDx=0;entryDy=0;exitX=0.5;exitY=1;exitDx=0;exitDy=0;" parent="1" source="P_y4aerGXSMcK7ylAQnV-6" target="P_y4aerGXSMcK7ylAQnV-1" edge="1">
          <mxGeometry relative="1" as="geometry">
            <mxPoint x="-60" y="270" as="sourcePoint" />
            <mxPoint x="90" y="410" as="targetPoint" />
          </mxGeometry>
        </mxCell>
        <mxCell id="P_y4aerGXSMcK7ylAQnV-6" value="도착시간" style="ellipse;whiteSpace=wrap;html=1;align=center;" parent="1" vertex="1">
          <mxGeometry x="-120" y="300" width="100" height="40" as="geometry" />
        </mxCell>
        <mxCell id="P_y4aerGXSMcK7ylAQnV-7" value="" style="endArrow=none;html=1;rounded=0;entryX=0.5;entryY=0;entryDx=0;entryDy=0;exitX=0.5;exitY=1;exitDx=0;exitDy=0;" parent="1" source="P_y4aerGXSMcK7ylAQnV-8" target="P_y4aerGXSMcK7ylAQnV-1" edge="1">
          <mxGeometry relative="1" as="geometry">
            <mxPoint x="20" y="340" as="sourcePoint" />
            <mxPoint x="100" y="430" as="targetPoint" />
          </mxGeometry>
        </mxCell>
        <mxCell id="P_y4aerGXSMcK7ylAQnV-8" value="상태" style="ellipse;whiteSpace=wrap;html=1;align=center;" parent="1" vertex="1">
          <mxGeometry x="-40" y="350" width="100" height="40" as="geometry" />
        </mxCell>
        <mxCell id="P_y4aerGXSMcK7ylAQnV-9" value="" style="endArrow=none;html=1;rounded=0;entryX=0.75;entryY=0;entryDx=0;entryDy=0;exitX=0.5;exitY=1;exitDx=0;exitDy=0;" parent="1" source="P_y4aerGXSMcK7ylAQnV-10" target="P_y4aerGXSMcK7ylAQnV-1" edge="1">
          <mxGeometry relative="1" as="geometry">
            <mxPoint x="120" y="310" as="sourcePoint" />
            <mxPoint x="35" y="420" as="targetPoint" />
          </mxGeometry>
        </mxCell>
        <mxCell id="P_y4aerGXSMcK7ylAQnV-10" value="출발공항" style="ellipse;whiteSpace=wrap;html=1;align=center;" parent="1" vertex="1">
          <mxGeometry x="38.45" y="300" width="100" height="40" as="geometry" />
        </mxCell>
        <mxCell id="P_y4aerGXSMcK7ylAQnV-11" value="" style="endArrow=none;html=1;rounded=0;entryX=1;entryY=0;entryDx=0;entryDy=0;exitX=0.5;exitY=1;exitDx=0;exitDy=0;" parent="1" source="P_y4aerGXSMcK7ylAQnV-12" target="P_y4aerGXSMcK7ylAQnV-1" edge="1">
          <mxGeometry relative="1" as="geometry">
            <mxPoint x="185" y="370" as="sourcePoint" />
            <mxPoint x="70" y="480" as="targetPoint" />
          </mxGeometry>
        </mxCell>
        <mxCell id="P_y4aerGXSMcK7ylAQnV-12" value="도착공항" style="ellipse;whiteSpace=wrap;html=1;align=center;" parent="1" vertex="1">
          <mxGeometry x="80" y="350" width="100" height="40" as="geometry" />
        </mxCell>
        <mxCell id="P_y4aerGXSMcK7ylAQnV-13" value="" style="endArrow=none;html=1;rounded=0;entryX=1;entryY=0;entryDx=0;entryDy=0;exitX=0;exitY=0.5;exitDx=0;exitDy=0;" parent="1" source="P_y4aerGXSMcK7ylAQnV-138" target="P_y4aerGXSMcK7ylAQnV-1" edge="1">
          <mxGeometry relative="1" as="geometry">
            <mxPoint x="180" y="380" as="sourcePoint" />
            <mxPoint x="140" y="520" as="targetPoint" />
          </mxGeometry>
        </mxCell>
        <mxCell id="P_y4aerGXSMcK7ylAQnV-20" value="" style="endArrow=none;html=1;rounded=0;entryX=0;entryY=0.5;entryDx=0;entryDy=0;exitX=1;exitY=0.5;exitDx=0;exitDy=0;" parent="1" source="P_y4aerGXSMcK7ylAQnV-1" target="P_y4aerGXSMcK7ylAQnV-73" edge="1">
          <mxGeometry relative="1" as="geometry">
            <mxPoint x="60" y="460" as="sourcePoint" />
            <mxPoint x="220" y="460" as="targetPoint" />
          </mxGeometry>
        </mxCell>
        <mxCell id="P_y4aerGXSMcK7ylAQnV-21" value="항공기" style="whiteSpace=wrap;html=1;" parent="1" vertex="1">
          <mxGeometry x="460" y="430" width="120" height="60" as="geometry" />
        </mxCell>
        <mxCell id="P_y4aerGXSMcK7ylAQnV-23" value="" style="endArrow=none;html=1;rounded=0;entryX=0;entryY=0.5;entryDx=0;entryDy=0;exitX=1;exitY=0.5;exitDx=0;exitDy=0;" parent="1" source="P_y4aerGXSMcK7ylAQnV-73" target="P_y4aerGXSMcK7ylAQnV-21" edge="1">
          <mxGeometry relative="1" as="geometry">
            <mxPoint x="300" y="460" as="sourcePoint" />
            <mxPoint x="460" y="459.58" as="targetPoint" />
          </mxGeometry>
        </mxCell>
        <mxCell id="P_y4aerGXSMcK7ylAQnV-24" value="" style="endArrow=none;html=1;rounded=0;entryX=0.25;entryY=0;entryDx=0;entryDy=0;exitX=0.5;exitY=1;exitDx=0;exitDy=0;" parent="1" target="P_y4aerGXSMcK7ylAQnV-21" edge="1">
          <mxGeometry relative="1" as="geometry">
            <mxPoint x="440" y="350" as="sourcePoint" />
            <mxPoint x="540" y="390" as="targetPoint" />
          </mxGeometry>
        </mxCell>
        <mxCell id="P_y4aerGXSMcK7ylAQnV-26" value="모델" style="ellipse;whiteSpace=wrap;html=1;align=center;" parent="1" vertex="1">
          <mxGeometry x="450" y="260" width="100" height="40" as="geometry" />
        </mxCell>
        <mxCell id="P_y4aerGXSMcK7ylAQnV-27" value="" style="endArrow=none;html=1;rounded=0;entryX=0.5;entryY=0;entryDx=0;entryDy=0;exitX=0.5;exitY=1;exitDx=0;exitDy=0;" parent="1" source="P_y4aerGXSMcK7ylAQnV-26" target="P_y4aerGXSMcK7ylAQnV-21" edge="1">
          <mxGeometry relative="1" as="geometry">
            <mxPoint x="440" y="350" as="sourcePoint" />
            <mxPoint x="500" y="440" as="targetPoint" />
          </mxGeometry>
        </mxCell>
        <mxCell id="P_y4aerGXSMcK7ylAQnV-28" value="" style="endArrow=none;html=1;rounded=0;entryX=1;entryY=0;entryDx=0;entryDy=0;exitX=0.5;exitY=1;exitDx=0;exitDy=0;" parent="1" source="P_y4aerGXSMcK7ylAQnV-31" target="P_y4aerGXSMcK7ylAQnV-21" edge="1">
          <mxGeometry relative="1" as="geometry">
            <mxPoint x="630" y="360" as="sourcePoint" />
            <mxPoint x="510" y="450" as="targetPoint" />
          </mxGeometry>
        </mxCell>
        <mxCell id="P_y4aerGXSMcK7ylAQnV-31" value="운행거리" style="ellipse;whiteSpace=wrap;html=1;align=center;" parent="1" vertex="1">
          <mxGeometry x="560" y="270" width="100" height="40" as="geometry" />
        </mxCell>
        <mxCell id="P_y4aerGXSMcK7ylAQnV-32" value="" style="endArrow=none;html=1;rounded=0;entryX=1;entryY=0.25;entryDx=0;entryDy=0;exitX=0.5;exitY=1;exitDx=0;exitDy=0;" parent="1" source="P_y4aerGXSMcK7ylAQnV-33" target="P_y4aerGXSMcK7ylAQnV-21" edge="1">
          <mxGeometry relative="1" as="geometry">
            <mxPoint x="700" y="360" as="sourcePoint" />
            <mxPoint x="520" y="460" as="targetPoint" />
          </mxGeometry>
        </mxCell>
        <mxCell id="P_y4aerGXSMcK7ylAQnV-33" value="수용인원" style="ellipse;whiteSpace=wrap;html=1;align=center;" parent="1" vertex="1">
          <mxGeometry x="650" y="320" width="100" height="40" as="geometry" />
        </mxCell>
        <mxCell id="P_y4aerGXSMcK7ylAQnV-34" value="" style="endArrow=none;html=1;rounded=0;entryX=1;entryY=0.5;entryDx=0;entryDy=0;exitX=0;exitY=0.5;exitDx=0;exitDy=0;" parent="1" source="P_y4aerGXSMcK7ylAQnV-35" target="P_y4aerGXSMcK7ylAQnV-21" edge="1">
          <mxGeometry relative="1" as="geometry">
            <mxPoint x="680" y="440" as="sourcePoint" />
            <mxPoint x="530" y="470" as="targetPoint" />
          </mxGeometry>
        </mxCell>
        <mxCell id="P_y4aerGXSMcK7ylAQnV-35" value="항공기 이름" style="ellipse;whiteSpace=wrap;html=1;align=center;" parent="1" vertex="1">
          <mxGeometry x="680" y="420" width="100" height="40" as="geometry" />
        </mxCell>
        <mxCell id="P_y4aerGXSMcK7ylAQnV-39" value="" style="shape=link;html=1;rounded=0;entryX=1;entryY=1;entryDx=0;entryDy=0;" parent="1" source="P_y4aerGXSMcK7ylAQnV-72" target="P_y4aerGXSMcK7ylAQnV-1" edge="1">
          <mxGeometry relative="1" as="geometry">
            <mxPoint x="190" y="590" as="sourcePoint" />
            <mxPoint x="250" y="550" as="targetPoint" />
          </mxGeometry>
        </mxCell>
        <mxCell id="P_y4aerGXSMcK7ylAQnV-40" value="1" style="resizable=0;html=1;whiteSpace=wrap;align=right;verticalAlign=bottom;" parent="P_y4aerGXSMcK7ylAQnV-39" connectable="0" vertex="1">
          <mxGeometry x="1" relative="1" as="geometry" />
        </mxCell>
        <mxCell id="P_y4aerGXSMcK7ylAQnV-44" value="" style="endArrow=none;html=1;rounded=0;exitX=1;exitY=1;exitDx=0;exitDy=0;entryX=0.5;entryY=0;entryDx=0;entryDy=0;" parent="1" source="P_y4aerGXSMcK7ylAQnV-72" target="P_y4aerGXSMcK7ylAQnV-46" edge="1">
          <mxGeometry relative="1" as="geometry">
            <mxPoint x="230" y="630" as="sourcePoint" />
            <mxPoint x="280" y="770" as="targetPoint" />
          </mxGeometry>
        </mxCell>
        <mxCell id="P_y4aerGXSMcK7ylAQnV-45" value="N" style="resizable=0;html=1;whiteSpace=wrap;align=right;verticalAlign=bottom;" parent="P_y4aerGXSMcK7ylAQnV-44" connectable="0" vertex="1">
          <mxGeometry x="1" relative="1" as="geometry">
            <mxPoint as="offset" />
          </mxGeometry>
        </mxCell>
        <mxCell id="P_y4aerGXSMcK7ylAQnV-46" value="기장" style="whiteSpace=wrap;html=1;align=center;" parent="1" vertex="1">
          <mxGeometry x="240" y="780" width="100" height="40" as="geometry" />
        </mxCell>
        <mxCell id="P_y4aerGXSMcK7ylAQnV-48" value="" style="endArrow=none;html=1;rounded=0;exitX=1;exitY=0.5;exitDx=0;exitDy=0;" parent="1" source="P_y4aerGXSMcK7ylAQnV-46" target="P_y4aerGXSMcK7ylAQnV-49" edge="1">
          <mxGeometry relative="1" as="geometry">
            <mxPoint x="390" y="840" as="sourcePoint" />
            <mxPoint x="450" y="770" as="targetPoint" />
          </mxGeometry>
        </mxCell>
        <mxCell id="P_y4aerGXSMcK7ylAQnV-49" value="이메일 주소" style="ellipse;whiteSpace=wrap;html=1;align=center;" parent="1" vertex="1">
          <mxGeometry x="430" y="750" width="100" height="40" as="geometry" />
        </mxCell>
        <mxCell id="P_y4aerGXSMcK7ylAQnV-50" value="" style="endArrow=none;html=1;rounded=0;exitX=1;exitY=1;exitDx=0;exitDy=0;" parent="1" source="P_y4aerGXSMcK7ylAQnV-46" target="P_y4aerGXSMcK7ylAQnV-53" edge="1">
          <mxGeometry relative="1" as="geometry">
            <mxPoint x="350" y="810" as="sourcePoint" />
            <mxPoint x="440.68030380839264" y="826.7120202538929" as="targetPoint" />
          </mxGeometry>
        </mxCell>
        <mxCell id="P_y4aerGXSMcK7ylAQnV-52" value="" style="endArrow=none;html=1;rounded=0;exitX=0.75;exitY=1;exitDx=0;exitDy=0;" parent="1" source="P_y4aerGXSMcK7ylAQnV-46" target="P_y4aerGXSMcK7ylAQnV-55" edge="1">
          <mxGeometry relative="1" as="geometry">
            <mxPoint x="360" y="820" as="sourcePoint" />
            <mxPoint x="410" y="860" as="targetPoint" />
          </mxGeometry>
        </mxCell>
        <mxCell id="P_y4aerGXSMcK7ylAQnV-53" value="성별" style="ellipse;whiteSpace=wrap;html=1;align=center;" parent="1" vertex="1">
          <mxGeometry x="440.00030380839263" y="806.7120202538929" width="100" height="40" as="geometry" />
        </mxCell>
        <mxCell id="P_y4aerGXSMcK7ylAQnV-55" value="자격증" style="ellipse;whiteSpace=wrap;html=1;align=center;" parent="1" vertex="1">
          <mxGeometry x="400" y="860" width="100" height="40" as="geometry" />
        </mxCell>
        <mxCell id="P_y4aerGXSMcK7ylAQnV-56" value="" style="endArrow=none;html=1;rounded=0;exitX=0.5;exitY=1;exitDx=0;exitDy=0;" parent="1" source="P_y4aerGXSMcK7ylAQnV-46" target="P_y4aerGXSMcK7ylAQnV-57" edge="1">
          <mxGeometry relative="1" as="geometry">
            <mxPoint x="370" y="830" as="sourcePoint" />
            <mxPoint x="320" y="910" as="targetPoint" />
          </mxGeometry>
        </mxCell>
        <mxCell id="P_y4aerGXSMcK7ylAQnV-57" value="성명" style="ellipse;whiteSpace=wrap;html=1;align=center;" parent="1" vertex="1">
          <mxGeometry x="270" y="890" width="100" height="40" as="geometry" />
        </mxCell>
        <mxCell id="P_y4aerGXSMcK7ylAQnV-58" value="" style="endArrow=none;html=1;rounded=0;exitX=0;exitY=1;exitDx=0;exitDy=0;" parent="1" source="P_y4aerGXSMcK7ylAQnV-57" target="P_y4aerGXSMcK7ylAQnV-59" edge="1">
          <mxGeometry relative="1" as="geometry">
            <mxPoint x="380" y="840" as="sourcePoint" />
            <mxPoint x="280" y="970" as="targetPoint" />
          </mxGeometry>
        </mxCell>
        <mxCell id="P_y4aerGXSMcK7ylAQnV-59" value="성" style="ellipse;whiteSpace=wrap;html=1;align=center;" parent="1" vertex="1">
          <mxGeometry x="230" y="950" width="100" height="40" as="geometry" />
        </mxCell>
        <mxCell id="P_y4aerGXSMcK7ylAQnV-60" value="" style="endArrow=none;html=1;rounded=0;exitX=1;exitY=1;exitDx=0;exitDy=0;" parent="1" source="P_y4aerGXSMcK7ylAQnV-57" target="P_y4aerGXSMcK7ylAQnV-61" edge="1">
          <mxGeometry relative="1" as="geometry">
            <mxPoint x="390" y="850" as="sourcePoint" />
            <mxPoint x="390" y="960" as="targetPoint" />
          </mxGeometry>
        </mxCell>
        <mxCell id="P_y4aerGXSMcK7ylAQnV-61" value="이름" style="ellipse;whiteSpace=wrap;html=1;align=center;" parent="1" vertex="1">
          <mxGeometry x="340" y="940" width="100" height="40" as="geometry" />
        </mxCell>
        <mxCell id="P_y4aerGXSMcK7ylAQnV-62" value="" style="endArrow=none;html=1;rounded=0;exitX=0;exitY=1;exitDx=0;exitDy=0;" parent="1" source="P_y4aerGXSMcK7ylAQnV-46" target="P_y4aerGXSMcK7ylAQnV-136" edge="1">
          <mxGeometry relative="1" as="geometry">
            <mxPoint x="400" y="860" as="sourcePoint" />
            <mxPoint x="226.79978002777875" y="850.5685246776211" as="targetPoint" />
          </mxGeometry>
        </mxCell>
        <mxCell id="P_y4aerGXSMcK7ylAQnV-66" value="" style="endArrow=none;html=1;rounded=0;entryX=0.296;entryY=1.007;entryDx=0;entryDy=0;entryPerimeter=0;exitX=0.5;exitY=0;exitDx=0;exitDy=0;" parent="1" source="P_y4aerGXSMcK7ylAQnV-71" target="P_y4aerGXSMcK7ylAQnV-1" edge="1">
          <mxGeometry relative="1" as="geometry">
            <mxPoint x="-40" y="600" as="sourcePoint" />
            <mxPoint x="120" y="600" as="targetPoint" />
          </mxGeometry>
        </mxCell>
        <mxCell id="P_y4aerGXSMcK7ylAQnV-67" value="N" style="resizable=0;html=1;whiteSpace=wrap;align=right;verticalAlign=bottom;" parent="P_y4aerGXSMcK7ylAQnV-66" connectable="0" vertex="1">
          <mxGeometry x="1" relative="1" as="geometry" />
        </mxCell>
        <mxCell id="P_y4aerGXSMcK7ylAQnV-68" value="" style="endArrow=none;html=1;rounded=0;entryX=0.75;entryY=1;entryDx=0;entryDy=0;exitX=0.317;exitY=0.12;exitDx=0;exitDy=0;exitPerimeter=0;" parent="1" source="P_y4aerGXSMcK7ylAQnV-76" target="P_y4aerGXSMcK7ylAQnV-1" edge="1">
          <mxGeometry relative="1" as="geometry">
            <mxPoint x="70" y="600" as="sourcePoint" />
            <mxPoint y="490" as="targetPoint" />
          </mxGeometry>
        </mxCell>
        <mxCell id="P_y4aerGXSMcK7ylAQnV-69" value="N" style="resizable=0;html=1;whiteSpace=wrap;align=right;verticalAlign=bottom;" parent="P_y4aerGXSMcK7ylAQnV-68" connectable="0" vertex="1">
          <mxGeometry x="1" relative="1" as="geometry" />
        </mxCell>
        <mxCell id="P_y4aerGXSMcK7ylAQnV-71" value="착륙" style="shape=rhombus;perimeter=rhombusPerimeter;whiteSpace=wrap;html=1;align=center;" parent="1" vertex="1">
          <mxGeometry x="-100" y="600" width="120" height="60" as="geometry" />
        </mxCell>
        <mxCell id="P_y4aerGXSMcK7ylAQnV-72" value="할당" style="shape=rhombus;perimeter=rhombusPerimeter;whiteSpace=wrap;html=1;align=center;" parent="1" vertex="1">
          <mxGeometry x="158.45" y="580" width="120" height="60" as="geometry" />
        </mxCell>
        <mxCell id="P_y4aerGXSMcK7ylAQnV-73" value="비행" style="shape=rhombus;perimeter=rhombusPerimeter;whiteSpace=wrap;html=1;align=center;" parent="1" vertex="1">
          <mxGeometry x="190" y="430" width="120" height="60" as="geometry" />
        </mxCell>
        <mxCell id="P_y4aerGXSMcK7ylAQnV-76" value="이륙" style="shape=rhombus;perimeter=rhombusPerimeter;whiteSpace=wrap;html=1;align=center;" parent="1" vertex="1">
          <mxGeometry x="38.45" y="600" width="120" height="60" as="geometry" />
        </mxCell>
        <mxCell id="P_y4aerGXSMcK7ylAQnV-77" value="" style="endArrow=none;html=1;rounded=0;exitX=0.5;exitY=1;exitDx=0;exitDy=0;" parent="1" source="P_y4aerGXSMcK7ylAQnV-71" target="P_y4aerGXSMcK7ylAQnV-79" edge="1">
          <mxGeometry relative="1" as="geometry">
            <mxPoint x="10" y="680" as="sourcePoint" />
            <mxPoint x="-10" y="750" as="targetPoint" />
          </mxGeometry>
        </mxCell>
        <mxCell id="P_y4aerGXSMcK7ylAQnV-78" value="1" style="resizable=0;html=1;whiteSpace=wrap;align=right;verticalAlign=bottom;" parent="P_y4aerGXSMcK7ylAQnV-77" connectable="0" vertex="1">
          <mxGeometry x="1" relative="1" as="geometry">
            <mxPoint x="-7" as="offset" />
          </mxGeometry>
        </mxCell>
        <mxCell id="P_y4aerGXSMcK7ylAQnV-79" value="게이트" style="whiteSpace=wrap;html=1;align=center;" parent="1" vertex="1">
          <mxGeometry x="-30" y="730" width="100" height="40" as="geometry" />
        </mxCell>
        <mxCell id="P_y4aerGXSMcK7ylAQnV-80" value="" style="endArrow=none;html=1;rounded=0;entryX=0.75;entryY=0;entryDx=0;entryDy=0;" parent="1" source="P_y4aerGXSMcK7ylAQnV-76" target="P_y4aerGXSMcK7ylAQnV-79" edge="1">
          <mxGeometry relative="1" as="geometry">
            <mxPoint x="10" y="680" as="sourcePoint" />
            <mxPoint x="170" y="680" as="targetPoint" />
          </mxGeometry>
        </mxCell>
        <mxCell id="P_y4aerGXSMcK7ylAQnV-81" value="1" style="resizable=0;html=1;whiteSpace=wrap;align=right;verticalAlign=bottom;" parent="P_y4aerGXSMcK7ylAQnV-80" connectable="0" vertex="1">
          <mxGeometry x="1" relative="1" as="geometry" />
        </mxCell>
        <mxCell id="P_y4aerGXSMcK7ylAQnV-90" value="관리" style="shape=rhombus;perimeter=rhombusPerimeter;whiteSpace=wrap;html=1;align=center;" parent="1" vertex="1">
          <mxGeometry x="-390" y="610" width="120" height="60" as="geometry" />
        </mxCell>
        <mxCell id="P_y4aerGXSMcK7ylAQnV-91" value="" style="shape=link;html=1;rounded=0;exitX=0.5;exitY=0;exitDx=0;exitDy=0;entryX=0;entryY=1;entryDx=0;entryDy=0;" parent="1" source="P_y4aerGXSMcK7ylAQnV-90" target="P_y4aerGXSMcK7ylAQnV-1" edge="1">
          <mxGeometry relative="1" as="geometry">
            <mxPoint x="-140" y="640" as="sourcePoint" />
            <mxPoint x="20" y="640" as="targetPoint" />
          </mxGeometry>
        </mxCell>
        <mxCell id="P_y4aerGXSMcK7ylAQnV-92" value="1" style="resizable=0;html=1;whiteSpace=wrap;align=right;verticalAlign=bottom;" parent="P_y4aerGXSMcK7ylAQnV-91" connectable="0" vertex="1">
          <mxGeometry x="1" relative="1" as="geometry" />
        </mxCell>
        <mxCell id="P_y4aerGXSMcK7ylAQnV-93" value="" style="shape=link;html=1;rounded=0;entryX=0;entryY=0.5;entryDx=0;entryDy=0;exitX=1;exitY=0.5;exitDx=0;exitDy=0;" parent="1" source="P_y4aerGXSMcK7ylAQnV-118" target="P_y4aerGXSMcK7ylAQnV-1" edge="1">
          <mxGeometry relative="1" as="geometry">
            <mxPoint x="-200" y="460" as="sourcePoint" />
            <mxPoint x="-30" y="490" as="targetPoint" />
          </mxGeometry>
        </mxCell>
        <mxCell id="P_y4aerGXSMcK7ylAQnV-94" value="1" style="resizable=0;html=1;whiteSpace=wrap;align=right;verticalAlign=bottom;" parent="P_y4aerGXSMcK7ylAQnV-93" connectable="0" vertex="1">
          <mxGeometry x="1" relative="1" as="geometry" />
        </mxCell>
        <mxCell id="P_y4aerGXSMcK7ylAQnV-95" value="" style="endArrow=none;html=1;rounded=0;exitX=0.5;exitY=1;exitDx=0;exitDy=0;" parent="1" source="P_y4aerGXSMcK7ylAQnV-90" target="P_y4aerGXSMcK7ylAQnV-97" edge="1">
          <mxGeometry relative="1" as="geometry">
            <mxPoint x="-330" y="670" as="sourcePoint" />
            <mxPoint x="-330" y="740" as="targetPoint" />
          </mxGeometry>
        </mxCell>
        <mxCell id="P_y4aerGXSMcK7ylAQnV-96" value="N" style="resizable=0;html=1;whiteSpace=wrap;align=right;verticalAlign=bottom;" parent="P_y4aerGXSMcK7ylAQnV-95" connectable="0" vertex="1">
          <mxGeometry x="1" relative="1" as="geometry" />
        </mxCell>
        <mxCell id="P_y4aerGXSMcK7ylAQnV-97" value="승무원" style="whiteSpace=wrap;html=1;align=center;" parent="1" vertex="1">
          <mxGeometry x="-380" y="720" width="100" height="40" as="geometry" />
        </mxCell>
        <mxCell id="P_y4aerGXSMcK7ylAQnV-98" value="" style="endArrow=none;html=1;rounded=0;exitX=1;exitY=0;exitDx=0;exitDy=0;" parent="1" source="P_y4aerGXSMcK7ylAQnV-97" target="P_y4aerGXSMcK7ylAQnV-99" edge="1">
          <mxGeometry relative="1" as="geometry">
            <mxPoint x="-270" y="720" as="sourcePoint" />
            <mxPoint x="-250" y="690" as="targetPoint" />
          </mxGeometry>
        </mxCell>
        <mxCell id="P_y4aerGXSMcK7ylAQnV-99" value="성명" style="ellipse;whiteSpace=wrap;html=1;align=center;" parent="1" vertex="1">
          <mxGeometry x="-300" y="670" width="100" height="40" as="geometry" />
        </mxCell>
        <mxCell id="P_y4aerGXSMcK7ylAQnV-100" value="" style="endArrow=none;html=1;rounded=0;exitX=0.5;exitY=0;exitDx=0;exitDy=0;" parent="1" source="P_y4aerGXSMcK7ylAQnV-99" target="P_y4aerGXSMcK7ylAQnV-101" edge="1">
          <mxGeometry relative="1" as="geometry">
            <mxPoint x="-310" y="770" as="sourcePoint" />
            <mxPoint x="-220" y="640" as="targetPoint" />
          </mxGeometry>
        </mxCell>
        <mxCell id="P_y4aerGXSMcK7ylAQnV-101" value="성" style="ellipse;whiteSpace=wrap;html=1;align=center;" parent="1" vertex="1">
          <mxGeometry x="-260" y="620" width="100" height="40" as="geometry" />
        </mxCell>
        <mxCell id="P_y4aerGXSMcK7ylAQnV-102" value="" style="endArrow=none;html=1;rounded=0;exitX=1;exitY=0.5;exitDx=0;exitDy=0;" parent="1" source="P_y4aerGXSMcK7ylAQnV-99" target="P_y4aerGXSMcK7ylAQnV-103" edge="1">
          <mxGeometry relative="1" as="geometry">
            <mxPoint x="-300" y="780" as="sourcePoint" />
            <mxPoint x="-150" y="690" as="targetPoint" />
          </mxGeometry>
        </mxCell>
        <mxCell id="P_y4aerGXSMcK7ylAQnV-103" value="이름" style="ellipse;whiteSpace=wrap;html=1;align=center;" parent="1" vertex="1">
          <mxGeometry x="-180" y="670" width="100" height="40" as="geometry" />
        </mxCell>
        <mxCell id="P_y4aerGXSMcK7ylAQnV-104" value="" style="endArrow=none;html=1;rounded=0;exitX=1;exitY=0.25;exitDx=0;exitDy=0;" parent="1" source="P_y4aerGXSMcK7ylAQnV-97" target="P_y4aerGXSMcK7ylAQnV-105" edge="1">
          <mxGeometry relative="1" as="geometry">
            <mxPoint x="-290" y="790" as="sourcePoint" />
            <mxPoint x="-190" y="730" as="targetPoint" />
          </mxGeometry>
        </mxCell>
        <mxCell id="P_y4aerGXSMcK7ylAQnV-105" value="직종" style="ellipse;whiteSpace=wrap;html=1;align=center;" parent="1" vertex="1">
          <mxGeometry x="-240" y="710" width="100" height="40" as="geometry" />
        </mxCell>
        <mxCell id="P_y4aerGXSMcK7ylAQnV-106" value="" style="endArrow=none;html=1;rounded=0;exitX=1;exitY=1;exitDx=0;exitDy=0;" parent="1" source="P_y4aerGXSMcK7ylAQnV-97" target="P_y4aerGXSMcK7ylAQnV-107" edge="1">
          <mxGeometry relative="1" as="geometry">
            <mxPoint x="-280" y="800" as="sourcePoint" />
            <mxPoint x="-200" y="770" as="targetPoint" />
          </mxGeometry>
        </mxCell>
        <mxCell id="P_y4aerGXSMcK7ylAQnV-107" value="성별" style="ellipse;whiteSpace=wrap;html=1;align=center;" parent="1" vertex="1">
          <mxGeometry x="-220" y="760" width="100" height="40" as="geometry" />
        </mxCell>
        <mxCell id="P_y4aerGXSMcK7ylAQnV-108" value="" style="endArrow=none;html=1;rounded=0;exitX=0.834;exitY=1.041;exitDx=0;exitDy=0;exitPerimeter=0;" parent="1" source="P_y4aerGXSMcK7ylAQnV-97" target="P_y4aerGXSMcK7ylAQnV-109" edge="1">
          <mxGeometry relative="1" as="geometry">
            <mxPoint x="-270" y="810" as="sourcePoint" />
            <mxPoint x="-210" y="820" as="targetPoint" />
          </mxGeometry>
        </mxCell>
        <mxCell id="P_y4aerGXSMcK7ylAQnV-109" value="이메일주소" style="ellipse;whiteSpace=wrap;html=1;align=center;" parent="1" vertex="1">
          <mxGeometry x="-260" y="806.71" width="100" height="40" as="geometry" />
        </mxCell>
        <mxCell id="P_y4aerGXSMcK7ylAQnV-110" value="" style="endArrow=none;html=1;rounded=0;exitX=0.696;exitY=0.972;exitDx=0;exitDy=0;exitPerimeter=0;" parent="1" source="P_y4aerGXSMcK7ylAQnV-97" target="P_y4aerGXSMcK7ylAQnV-115" edge="1">
          <mxGeometry relative="1" as="geometry">
            <mxPoint x="-310" y="840" as="sourcePoint" />
            <mxPoint x="-310" y="840" as="targetPoint" />
          </mxGeometry>
        </mxCell>
        <mxCell id="P_y4aerGXSMcK7ylAQnV-111" value="N" style="resizable=0;html=1;whiteSpace=wrap;align=right;verticalAlign=bottom;" parent="P_y4aerGXSMcK7ylAQnV-110" connectable="0" vertex="1">
          <mxGeometry x="1" relative="1" as="geometry" />
        </mxCell>
        <mxCell id="P_y4aerGXSMcK7ylAQnV-112" value="" style="endArrow=none;html=1;rounded=0;exitX=0.25;exitY=1;exitDx=0;exitDy=0;entryX=0.417;entryY=0.055;entryDx=0;entryDy=0;entryPerimeter=0;" parent="1" source="P_y4aerGXSMcK7ylAQnV-97" target="P_y4aerGXSMcK7ylAQnV-115" edge="1">
          <mxGeometry relative="1" as="geometry">
            <mxPoint x="-390" y="830" as="sourcePoint" />
            <mxPoint x="-350" y="840" as="targetPoint" />
          </mxGeometry>
        </mxCell>
        <mxCell id="P_y4aerGXSMcK7ylAQnV-113" value="1" style="resizable=0;html=1;whiteSpace=wrap;align=right;verticalAlign=bottom;" parent="P_y4aerGXSMcK7ylAQnV-112" connectable="0" vertex="1">
          <mxGeometry x="1" relative="1" as="geometry" />
        </mxCell>
        <mxCell id="P_y4aerGXSMcK7ylAQnV-115" value="담당 관리" style="shape=rhombus;perimeter=rhombusPerimeter;whiteSpace=wrap;html=1;align=center;" parent="1" vertex="1">
          <mxGeometry x="-390" y="846.71" width="120" height="60" as="geometry" />
        </mxCell>
        <mxCell id="P_y4aerGXSMcK7ylAQnV-116" value="" style="endArrow=none;html=1;rounded=0;exitX=0;exitY=1;exitDx=0;exitDy=0;" parent="1" source="P_y4aerGXSMcK7ylAQnV-97" target="P_y4aerGXSMcK7ylAQnV-135" edge="1">
          <mxGeometry relative="1" as="geometry">
            <mxPoint x="-287" y="772" as="sourcePoint" />
            <mxPoint x="-395.43623767753365" y="780.8672142038188" as="targetPoint" />
          </mxGeometry>
        </mxCell>
        <mxCell id="P_y4aerGXSMcK7ylAQnV-118" value="부여" style="shape=rhombus;perimeter=rhombusPerimeter;whiteSpace=wrap;html=1;align=center;" parent="1" vertex="1">
          <mxGeometry x="-320" y="430" width="120" height="60" as="geometry" />
        </mxCell>
        <mxCell id="P_y4aerGXSMcK7ylAQnV-121" value="" style="shape=link;html=1;rounded=0;exitX=0;exitY=0.5;exitDx=0;exitDy=0;entryX=1;entryY=0.5;entryDx=0;entryDy=0;" parent="1" source="P_y4aerGXSMcK7ylAQnV-118" target="P_y4aerGXSMcK7ylAQnV-123" edge="1">
          <mxGeometry relative="1" as="geometry">
            <mxPoint x="-400" y="450" as="sourcePoint" />
            <mxPoint x="-490" y="460" as="targetPoint" />
          </mxGeometry>
        </mxCell>
        <mxCell id="P_y4aerGXSMcK7ylAQnV-122" value="N" style="resizable=0;html=1;whiteSpace=wrap;align=right;verticalAlign=bottom;" parent="P_y4aerGXSMcK7ylAQnV-121" connectable="0" vertex="1">
          <mxGeometry x="1" relative="1" as="geometry">
            <mxPoint x="10" as="offset" />
          </mxGeometry>
        </mxCell>
        <mxCell id="P_y4aerGXSMcK7ylAQnV-123" value="티켓" style="whiteSpace=wrap;html=1;align=center;" parent="1" vertex="1">
          <mxGeometry x="-600" y="440" width="100" height="40" as="geometry" />
        </mxCell>
        <mxCell id="P_y4aerGXSMcK7ylAQnV-124" value="" style="endArrow=none;html=1;rounded=0;exitX=0;exitY=0.25;exitDx=0;exitDy=0;entryX=0.5;entryY=1;entryDx=0;entryDy=0;" parent="1" source="P_y4aerGXSMcK7ylAQnV-123" target="P_y4aerGXSMcK7ylAQnV-132" edge="1">
          <mxGeometry relative="1" as="geometry">
            <mxPoint x="-690" y="400" as="sourcePoint" />
            <mxPoint x="-638.4347324035932" y="424.27172031346583" as="targetPoint" />
          </mxGeometry>
        </mxCell>
        <mxCell id="P_y4aerGXSMcK7ylAQnV-129" value="" style="endArrow=none;html=1;rounded=0;exitX=0;exitY=0.5;exitDx=0;exitDy=0;" parent="1" source="P_y4aerGXSMcK7ylAQnV-123" target="P_y4aerGXSMcK7ylAQnV-131" edge="1">
          <mxGeometry relative="1" as="geometry">
            <mxPoint x="-600" y="460" as="sourcePoint" />
            <mxPoint x="-680" y="460" as="targetPoint" />
          </mxGeometry>
        </mxCell>
        <mxCell id="P_y4aerGXSMcK7ylAQnV-131" value="발행일" style="ellipse;whiteSpace=wrap;html=1;align=center;" parent="1" vertex="1">
          <mxGeometry x="-770" y="440" width="100" height="40" as="geometry" />
        </mxCell>
        <mxCell id="P_y4aerGXSMcK7ylAQnV-132" value="티켓 번호" style="ellipse;whiteSpace=wrap;html=1;align=center;fontStyle=4;" parent="1" vertex="1">
          <mxGeometry x="-710" y="380" width="100" height="40" as="geometry" />
        </mxCell>
        <mxCell id="P_y4aerGXSMcK7ylAQnV-133" value="" style="endArrow=none;html=1;rounded=0;exitX=0;exitY=1;exitDx=0;exitDy=0;" parent="1" source="P_y4aerGXSMcK7ylAQnV-123" target="P_y4aerGXSMcK7ylAQnV-134" edge="1">
          <mxGeometry relative="1" as="geometry">
            <mxPoint x="-580" y="470" as="sourcePoint" />
            <mxPoint x="-660" y="510" as="targetPoint" />
          </mxGeometry>
        </mxCell>
        <mxCell id="P_y4aerGXSMcK7ylAQnV-134" value="요금" style="ellipse;whiteSpace=wrap;html=1;align=center;" parent="1" vertex="1">
          <mxGeometry x="-710" y="490" width="100" height="40" as="geometry" />
        </mxCell>
        <mxCell id="P_y4aerGXSMcK7ylAQnV-135" value="승무원 ID" style="ellipse;whiteSpace=wrap;html=1;align=center;fontStyle=4;" parent="1" vertex="1">
          <mxGeometry x="-462.99623767753366" y="789.9972142038188" width="100" height="40" as="geometry" />
        </mxCell>
        <mxCell id="P_y4aerGXSMcK7ylAQnV-136" value="기장 ID" style="ellipse;whiteSpace=wrap;html=1;align=center;fontStyle=4;" parent="1" vertex="1">
          <mxGeometry x="149.99978002777874" y="856.7085246776211" width="100" height="40" as="geometry" />
        </mxCell>
        <mxCell id="P_y4aerGXSMcK7ylAQnV-137" value="항공기 ID" style="ellipse;whiteSpace=wrap;html=1;align=center;fontStyle=4;" parent="1" vertex="1">
          <mxGeometry x="370" y="330" width="100" height="40" as="geometry" />
        </mxCell>
        <mxCell id="P_y4aerGXSMcK7ylAQnV-138" value="운항번호" style="ellipse;whiteSpace=wrap;html=1;align=center;fontStyle=4;" parent="1" vertex="1">
          <mxGeometry x="140" y="400" width="100" height="40" as="geometry" />
        </mxCell>
        <mxCell id="P_y4aerGXSMcK7ylAQnV-140" value="생성" style="shape=rhombus;perimeter=rhombusPerimeter;whiteSpace=wrap;html=1;align=center;" parent="1" vertex="1">
          <mxGeometry x="-620" y="580" width="120" height="60" as="geometry" />
        </mxCell>
        <mxCell id="P_y4aerGXSMcK7ylAQnV-141" value="" style="shape=link;html=1;rounded=0;entryX=0.5;entryY=1;entryDx=0;entryDy=0;exitX=0.5;exitY=0;exitDx=0;exitDy=0;" parent="1" source="P_y4aerGXSMcK7ylAQnV-140" target="P_y4aerGXSMcK7ylAQnV-123" edge="1">
          <mxGeometry relative="1" as="geometry">
            <mxPoint x="-580" y="570" as="sourcePoint" />
            <mxPoint x="-420" y="570" as="targetPoint" />
          </mxGeometry>
        </mxCell>
        <mxCell id="P_y4aerGXSMcK7ylAQnV-142" value="1" style="resizable=0;html=1;whiteSpace=wrap;align=right;verticalAlign=bottom;" parent="P_y4aerGXSMcK7ylAQnV-141" connectable="0" vertex="1">
          <mxGeometry x="1" relative="1" as="geometry" />
        </mxCell>
        <mxCell id="P_y4aerGXSMcK7ylAQnV-143" value="" style="shape=link;html=1;rounded=0;entryX=0.5;entryY=1;entryDx=0;entryDy=0;exitX=0.5;exitY=0;exitDx=0;exitDy=0;" parent="1" source="P_y4aerGXSMcK7ylAQnV-145" target="P_y4aerGXSMcK7ylAQnV-140" edge="1">
          <mxGeometry relative="1" as="geometry">
            <mxPoint x="-560" y="710" as="sourcePoint" />
            <mxPoint x="-540" y="490" as="targetPoint" />
          </mxGeometry>
        </mxCell>
        <mxCell id="P_y4aerGXSMcK7ylAQnV-144" value="1" style="resizable=0;html=1;whiteSpace=wrap;align=right;verticalAlign=bottom;" parent="P_y4aerGXSMcK7ylAQnV-143" connectable="0" vertex="1">
          <mxGeometry x="1" relative="1" as="geometry" />
        </mxCell>
        <mxCell id="P_y4aerGXSMcK7ylAQnV-145" value="청구서" style="whiteSpace=wrap;html=1;align=center;" parent="1" vertex="1">
          <mxGeometry x="-610" y="720" width="100" height="40" as="geometry" />
        </mxCell>
        <mxCell id="P_y4aerGXSMcK7ylAQnV-147" value="" style="endArrow=none;html=1;rounded=0;entryX=1;entryY=1;entryDx=0;entryDy=0;exitX=0.5;exitY=0;exitDx=0;exitDy=0;" parent="1" source="P_y4aerGXSMcK7ylAQnV-148" target="P_y4aerGXSMcK7ylAQnV-145" edge="1">
          <mxGeometry relative="1" as="geometry">
            <mxPoint x="-510" y="820" as="sourcePoint" />
            <mxPoint x="-420" y="720" as="targetPoint" />
          </mxGeometry>
        </mxCell>
        <mxCell id="P_y4aerGXSMcK7ylAQnV-148" value="날짜" style="ellipse;whiteSpace=wrap;html=1;align=center;" parent="1" vertex="1">
          <mxGeometry x="-570" y="830" width="100" height="40" as="geometry" />
        </mxCell>
        <mxCell id="P_y4aerGXSMcK7ylAQnV-149" value="" style="endArrow=none;html=1;rounded=0;entryX=0.25;entryY=1;entryDx=0;entryDy=0;exitX=0.5;exitY=0;exitDx=0;exitDy=0;" parent="1" source="P_y4aerGXSMcK7ylAQnV-150" target="P_y4aerGXSMcK7ylAQnV-145" edge="1">
          <mxGeometry relative="1" as="geometry">
            <mxPoint x="-620" y="820" as="sourcePoint" />
            <mxPoint x="-620" y="760" as="targetPoint" />
          </mxGeometry>
        </mxCell>
        <mxCell id="P_y4aerGXSMcK7ylAQnV-150" value="비용" style="ellipse;whiteSpace=wrap;html=1;align=center;" parent="1" vertex="1">
          <mxGeometry x="-680" y="830" width="100" height="40" as="geometry" />
        </mxCell>
        <mxCell id="P_y4aerGXSMcK7ylAQnV-151" value="" style="endArrow=none;html=1;rounded=0;entryX=0;entryY=1;entryDx=0;entryDy=0;exitX=0.5;exitY=0;exitDx=0;exitDy=0;" parent="1" source="P_y4aerGXSMcK7ylAQnV-153" target="P_y4aerGXSMcK7ylAQnV-145" edge="1">
          <mxGeometry relative="1" as="geometry">
            <mxPoint x="-730" y="765" as="sourcePoint" />
            <mxPoint x="-720" y="695" as="targetPoint" />
          </mxGeometry>
        </mxCell>
        <mxCell id="P_y4aerGXSMcK7ylAQnV-153" value="송장 ID" style="ellipse;whiteSpace=wrap;html=1;align=center;fontStyle=4;" parent="1" vertex="1">
          <mxGeometry x="-790" y="780" width="100" height="40" as="geometry" />
        </mxCell>
        <mxCell id="P_y4aerGXSMcK7ylAQnV-154" value="" style="endArrow=none;html=1;rounded=0;entryX=0.5;entryY=0;entryDx=0;entryDy=0;exitX=0.5;exitY=1;exitDx=0;exitDy=0;" parent="1" source="P_y4aerGXSMcK7ylAQnV-156" target="P_y4aerGXSMcK7ylAQnV-123" edge="1">
          <mxGeometry relative="1" as="geometry">
            <mxPoint x="-540" y="330" as="sourcePoint" />
            <mxPoint x="-350" y="350" as="targetPoint" />
          </mxGeometry>
        </mxCell>
        <mxCell id="P_y4aerGXSMcK7ylAQnV-155" value="1" style="resizable=0;html=1;whiteSpace=wrap;align=right;verticalAlign=bottom;" parent="P_y4aerGXSMcK7ylAQnV-154" connectable="0" vertex="1">
          <mxGeometry x="1" relative="1" as="geometry" />
        </mxCell>
        <mxCell id="P_y4aerGXSMcK7ylAQnV-156" value="구매" style="shape=rhombus;perimeter=rhombusPerimeter;whiteSpace=wrap;html=1;align=center;" parent="1" vertex="1">
          <mxGeometry x="-590" y="270" width="120" height="60" as="geometry" />
        </mxCell>
        <mxCell id="P_y4aerGXSMcK7ylAQnV-157" value="" style="endArrow=none;html=1;rounded=0;exitX=0.5;exitY=0;exitDx=0;exitDy=0;" parent="1" source="P_y4aerGXSMcK7ylAQnV-156" target="P_y4aerGXSMcK7ylAQnV-159" edge="1">
          <mxGeometry relative="1" as="geometry">
            <mxPoint x="-480" y="300" as="sourcePoint" />
            <mxPoint x="-530" y="180" as="targetPoint" />
          </mxGeometry>
        </mxCell>
        <mxCell id="P_y4aerGXSMcK7ylAQnV-158" value="1" style="resizable=0;html=1;whiteSpace=wrap;align=right;verticalAlign=bottom;direction=south;" parent="P_y4aerGXSMcK7ylAQnV-157" connectable="0" vertex="1">
          <mxGeometry x="1" relative="1" as="geometry">
            <mxPoint y="20" as="offset" />
          </mxGeometry>
        </mxCell>
        <mxCell id="P_y4aerGXSMcK7ylAQnV-159" value="승객" style="whiteSpace=wrap;html=1;align=center;" parent="1" vertex="1">
          <mxGeometry x="-580" y="130" width="100" height="40" as="geometry" />
        </mxCell>
        <mxCell id="P_y4aerGXSMcK7ylAQnV-163" value="" style="endArrow=none;html=1;rounded=0;exitX=0.25;exitY=0;exitDx=0;exitDy=0;" parent="1" source="P_y4aerGXSMcK7ylAQnV-159" target="P_y4aerGXSMcK7ylAQnV-165" edge="1">
          <mxGeometry relative="1" as="geometry">
            <mxPoint x="-520" y="180" as="sourcePoint" />
            <mxPoint x="-580.2875994977229" y="79.61904901459968" as="targetPoint" />
          </mxGeometry>
        </mxCell>
        <mxCell id="P_y4aerGXSMcK7ylAQnV-165" value="승객 번호" style="ellipse;whiteSpace=wrap;html=1;align=center;fontStyle=4;" parent="1" vertex="1">
          <mxGeometry x="-659.997599497723" y="59.61904901459968" width="100" height="40" as="geometry" />
        </mxCell>
        <mxCell id="P_y4aerGXSMcK7ylAQnV-166" value="" style="endArrow=none;html=1;rounded=0;exitX=0.5;exitY=0;exitDx=0;exitDy=0;" parent="1" source="P_y4aerGXSMcK7ylAQnV-159" target="P_y4aerGXSMcK7ylAQnV-167" edge="1">
          <mxGeometry relative="1" as="geometry">
            <mxPoint x="-550" y="110" as="sourcePoint" />
            <mxPoint x="-530" y="70" as="targetPoint" />
          </mxGeometry>
        </mxCell>
        <mxCell id="P_y4aerGXSMcK7ylAQnV-167" value="성명" style="ellipse;whiteSpace=wrap;html=1;align=center;" parent="1" vertex="1">
          <mxGeometry x="-590" y="19.62" width="100" height="40" as="geometry" />
        </mxCell>
        <mxCell id="P_y4aerGXSMcK7ylAQnV-170" value="" style="endArrow=none;html=1;rounded=0;exitX=0;exitY=0;exitDx=0;exitDy=0;" parent="1" source="P_y4aerGXSMcK7ylAQnV-167" target="P_y4aerGXSMcK7ylAQnV-171" edge="1">
          <mxGeometry relative="1" as="geometry">
            <mxPoint x="-520" y="140" as="sourcePoint" />
            <mxPoint x="-600" y="-30" as="targetPoint" />
          </mxGeometry>
        </mxCell>
        <mxCell id="P_y4aerGXSMcK7ylAQnV-171" value="성" style="ellipse;whiteSpace=wrap;html=1;align=center;" parent="1" vertex="1">
          <mxGeometry x="-650" y="-50" width="100" height="40" as="geometry" />
        </mxCell>
        <mxCell id="P_y4aerGXSMcK7ylAQnV-172" value="" style="endArrow=none;html=1;rounded=0;entryX=1;entryY=0;entryDx=0;entryDy=0;" parent="1" target="P_y4aerGXSMcK7ylAQnV-167" edge="1">
          <mxGeometry relative="1" as="geometry">
            <mxPoint x="-490" y="-20" as="sourcePoint" />
            <mxPoint x="-518" y="80" as="targetPoint" />
          </mxGeometry>
        </mxCell>
        <mxCell id="P_y4aerGXSMcK7ylAQnV-173" value="이름" style="ellipse;whiteSpace=wrap;html=1;align=center;" parent="1" vertex="1">
          <mxGeometry x="-540" y="-50" width="100" height="40" as="geometry" />
        </mxCell>
        <mxCell id="P_y4aerGXSMcK7ylAQnV-174" value="" style="endArrow=none;html=1;rounded=0;exitX=0.75;exitY=0;exitDx=0;exitDy=0;" parent="1" source="P_y4aerGXSMcK7ylAQnV-159" target="P_y4aerGXSMcK7ylAQnV-175" edge="1">
          <mxGeometry relative="1" as="geometry">
            <mxPoint x="-500" y="160" as="sourcePoint" />
            <mxPoint x="-450" y="70" as="targetPoint" />
          </mxGeometry>
        </mxCell>
        <mxCell id="P_y4aerGXSMcK7ylAQnV-175" value="출생의 날짜" style="ellipse;whiteSpace=wrap;html=1;align=center;" parent="1" vertex="1">
          <mxGeometry x="-480" y="19.619999999999997" width="100" height="40" as="geometry" />
        </mxCell>
        <mxCell id="P_y4aerGXSMcK7ylAQnV-176" value="" style="endArrow=none;html=1;rounded=0;exitX=1;exitY=0;exitDx=0;exitDy=0;" parent="1" source="P_y4aerGXSMcK7ylAQnV-159" target="P_y4aerGXSMcK7ylAQnV-177" edge="1">
          <mxGeometry relative="1" as="geometry">
            <mxPoint x="-490" y="170" as="sourcePoint" />
            <mxPoint x="-330" y="30" as="targetPoint" />
          </mxGeometry>
        </mxCell>
        <mxCell id="P_y4aerGXSMcK7ylAQnV-177" value="전화번호" style="ellipse;whiteSpace=wrap;html=1;align=center;" parent="1" vertex="1">
          <mxGeometry x="-380" y="-10" width="100" height="40" as="geometry" />
        </mxCell>
        <mxCell id="P_y4aerGXSMcK7ylAQnV-178" value="" style="endArrow=none;html=1;rounded=0;" parent="1" target="P_y4aerGXSMcK7ylAQnV-181" edge="1">
          <mxGeometry relative="1" as="geometry">
            <mxPoint x="-480" y="130" as="sourcePoint" />
            <mxPoint x="-296.9970036697987" y="63.45345587992665" as="targetPoint" />
          </mxGeometry>
        </mxCell>
        <mxCell id="P_y4aerGXSMcK7ylAQnV-181" value="나이" style="ellipse;whiteSpace=wrap;html=1;align=center;dashed=1;" parent="1" vertex="1">
          <mxGeometry x="-346.9970036697987" y="43.45345587992665" width="100" height="40" as="geometry" />
        </mxCell>
        <mxCell id="P_y4aerGXSMcK7ylAQnV-182" value="" style="endArrow=none;html=1;rounded=0;exitX=1;exitY=0.25;exitDx=0;exitDy=0;" parent="1" source="P_y4aerGXSMcK7ylAQnV-159" target="P_y4aerGXSMcK7ylAQnV-183" edge="1">
          <mxGeometry relative="1" as="geometry">
            <mxPoint x="-470" y="190" as="sourcePoint" />
            <mxPoint x="-330" y="110" as="targetPoint" />
          </mxGeometry>
        </mxCell>
        <mxCell id="P_y4aerGXSMcK7ylAQnV-183" value="여권번호" style="ellipse;whiteSpace=wrap;html=1;align=center;" parent="1" vertex="1">
          <mxGeometry x="-380" y="90" width="100" height="40" as="geometry" />
        </mxCell>
        <mxCell id="P_y4aerGXSMcK7ylAQnV-184" value="" style="endArrow=none;html=1;rounded=0;entryX=1;entryY=0.75;entryDx=0;entryDy=0;exitX=0;exitY=0.5;exitDx=0;exitDy=0;" parent="1" source="P_y4aerGXSMcK7ylAQnV-201" target="P_y4aerGXSMcK7ylAQnV-159" edge="1">
          <mxGeometry relative="1" as="geometry">
            <mxPoint x="-240" y="160" as="sourcePoint" />
            <mxPoint x="-190" y="190" as="targetPoint" />
          </mxGeometry>
        </mxCell>
        <mxCell id="P_y4aerGXSMcK7ylAQnV-185" value="1" style="resizable=0;html=1;whiteSpace=wrap;align=right;verticalAlign=bottom;" parent="P_y4aerGXSMcK7ylAQnV-184" connectable="0" vertex="1">
          <mxGeometry x="1" relative="1" as="geometry" />
        </mxCell>
        <mxCell id="P_y4aerGXSMcK7ylAQnV-187" value="" style="endArrow=none;html=1;rounded=0;entryX=0;entryY=0.5;entryDx=0;entryDy=0;exitX=1;exitY=0.5;exitDx=0;exitDy=0;" parent="1" source="P_y4aerGXSMcK7ylAQnV-189" target="P_y4aerGXSMcK7ylAQnV-159" edge="1">
          <mxGeometry relative="1" as="geometry">
            <mxPoint x="-740" y="150" as="sourcePoint" />
            <mxPoint x="-810" y="160" as="targetPoint" />
          </mxGeometry>
        </mxCell>
        <mxCell id="P_y4aerGXSMcK7ylAQnV-188" value="1" style="resizable=0;html=1;whiteSpace=wrap;align=right;verticalAlign=bottom;" parent="P_y4aerGXSMcK7ylAQnV-187" connectable="0" vertex="1">
          <mxGeometry x="1" relative="1" as="geometry" />
        </mxCell>
        <mxCell id="P_y4aerGXSMcK7ylAQnV-189" value="소유" style="shape=rhombus;perimeter=rhombusPerimeter;whiteSpace=wrap;html=1;align=center;" parent="1" vertex="1">
          <mxGeometry x="-870" y="120" width="120" height="60" as="geometry" />
        </mxCell>
        <mxCell id="P_y4aerGXSMcK7ylAQnV-192" value="수하물" style="whiteSpace=wrap;html=1;align=center;" parent="1" vertex="1">
          <mxGeometry x="-1060" y="130.00000000000023" width="100" height="40" as="geometry" />
        </mxCell>
        <mxCell id="P_y4aerGXSMcK7ylAQnV-193" value="" style="endArrow=none;html=1;rounded=0;entryX=1;entryY=0.5;entryDx=0;entryDy=0;exitX=0;exitY=0.5;exitDx=0;exitDy=0;" parent="1" source="P_y4aerGXSMcK7ylAQnV-189" target="P_y4aerGXSMcK7ylAQnV-192" edge="1">
          <mxGeometry relative="1" as="geometry">
            <mxPoint x="-950" y="180" as="sourcePoint" />
            <mxPoint x="-790" y="180" as="targetPoint" />
          </mxGeometry>
        </mxCell>
        <mxCell id="P_y4aerGXSMcK7ylAQnV-194" value="N" style="resizable=0;html=1;whiteSpace=wrap;align=right;verticalAlign=bottom;" parent="P_y4aerGXSMcK7ylAQnV-193" connectable="0" vertex="1">
          <mxGeometry x="1" relative="1" as="geometry" />
        </mxCell>
        <mxCell id="P_y4aerGXSMcK7ylAQnV-195" value="" style="endArrow=none;html=1;rounded=0;exitX=1;exitY=0;exitDx=0;exitDy=0;entryX=0.252;entryY=0.946;entryDx=0;entryDy=0;entryPerimeter=0;" parent="1" source="P_y4aerGXSMcK7ylAQnV-192" target="P_y4aerGXSMcK7ylAQnV-196" edge="1">
          <mxGeometry relative="1" as="geometry">
            <mxPoint x="-950" y="180" as="sourcePoint" />
            <mxPoint x="-900" y="90" as="targetPoint" />
          </mxGeometry>
        </mxCell>
        <mxCell id="P_y4aerGXSMcK7ylAQnV-196" value="수량" style="ellipse;whiteSpace=wrap;html=1;align=center;" parent="1" vertex="1">
          <mxGeometry x="-950" y="70.00000000000023" width="100" height="40" as="geometry" />
        </mxCell>
        <mxCell id="P_y4aerGXSMcK7ylAQnV-197" value="" style="endArrow=none;html=1;rounded=0;exitX=0.5;exitY=0;exitDx=0;exitDy=0;entryX=0.5;entryY=1;entryDx=0;entryDy=0;" parent="1" source="P_y4aerGXSMcK7ylAQnV-192" target="P_y4aerGXSMcK7ylAQnV-198" edge="1">
          <mxGeometry relative="1" as="geometry">
            <mxPoint x="-950" y="140" as="sourcePoint" />
            <mxPoint x="-1010" y="80" as="targetPoint" />
          </mxGeometry>
        </mxCell>
        <mxCell id="P_y4aerGXSMcK7ylAQnV-198" value="바코드" style="ellipse;whiteSpace=wrap;html=1;align=center;" parent="1" vertex="1">
          <mxGeometry x="-1060" y="60.00000000000023" width="100" height="40" as="geometry" />
        </mxCell>
        <mxCell id="P_y4aerGXSMcK7ylAQnV-199" value="" style="endArrow=none;html=1;rounded=0;exitX=0;exitY=0;exitDx=0;exitDy=0;entryX=1;entryY=1;entryDx=0;entryDy=0;" parent="1" source="P_y4aerGXSMcK7ylAQnV-192" target="P_y4aerGXSMcK7ylAQnV-200" edge="1">
          <mxGeometry relative="1" as="geometry">
            <mxPoint x="-940" y="150" as="sourcePoint" />
            <mxPoint x="-1130" y="100" as="targetPoint" />
          </mxGeometry>
        </mxCell>
        <mxCell id="P_y4aerGXSMcK7ylAQnV-200" value="체중" style="ellipse;whiteSpace=wrap;html=1;align=center;" parent="1" vertex="1">
          <mxGeometry x="-1180" y="80.00000000000023" width="100" height="40" as="geometry" />
        </mxCell>
        <mxCell id="P_y4aerGXSMcK7ylAQnV-201" value="예약" style="shape=rhombus;perimeter=rhombusPerimeter;whiteSpace=wrap;html=1;align=center;" parent="1" vertex="1">
          <mxGeometry x="-240" y="130" width="120" height="60" as="geometry" />
        </mxCell>
        <mxCell id="P_y4aerGXSMcK7ylAQnV-203" value="" style="endArrow=none;html=1;rounded=0;exitX=1;exitY=0.5;exitDx=0;exitDy=0;" parent="1" source="P_y4aerGXSMcK7ylAQnV-201" target="P_y4aerGXSMcK7ylAQnV-205" edge="1">
          <mxGeometry relative="1" as="geometry">
            <mxPoint x="-60" y="170" as="sourcePoint" />
            <mxPoint x="40" y="160" as="targetPoint" />
          </mxGeometry>
        </mxCell>
        <mxCell id="P_y4aerGXSMcK7ylAQnV-204" value="N" style="resizable=0;html=1;whiteSpace=wrap;align=right;verticalAlign=bottom;" parent="P_y4aerGXSMcK7ylAQnV-203" connectable="0" vertex="1">
          <mxGeometry x="1" relative="1" as="geometry" />
        </mxCell>
        <mxCell id="P_y4aerGXSMcK7ylAQnV-205" value="예매" style="whiteSpace=wrap;html=1;align=center;" parent="1" vertex="1">
          <mxGeometry x="-10" y="140.00000000000023" width="100" height="40" as="geometry" />
        </mxCell>
        <mxCell id="P_y4aerGXSMcK7ylAQnV-217" value="" style="endArrow=none;html=1;rounded=0;exitX=0;exitY=0.25;exitDx=0;exitDy=0;exitPerimeter=0;" parent="1" source="P_y4aerGXSMcK7ylAQnV-205" target="P_y4aerGXSMcK7ylAQnV-218" edge="1">
          <mxGeometry relative="1" as="geometry">
            <mxPoint x="70" y="200" as="sourcePoint" />
            <mxPoint x="-60" y="120" as="targetPoint" />
          </mxGeometry>
        </mxCell>
        <mxCell id="P_y4aerGXSMcK7ylAQnV-218" value="도착지" style="ellipse;whiteSpace=wrap;html=1;align=center;" parent="1" vertex="1">
          <mxGeometry x="-160" y="100.00000000000023" width="100" height="40" as="geometry" />
        </mxCell>
        <mxCell id="P_y4aerGXSMcK7ylAQnV-221" value="" style="endArrow=none;html=1;rounded=0;entryX=0.169;entryY=0.006;entryDx=0;entryDy=0;entryPerimeter=0;exitX=0.5;exitY=1;exitDx=0;exitDy=0;" parent="1" source="P_y4aerGXSMcK7ylAQnV-222" target="P_y4aerGXSMcK7ylAQnV-205" edge="1">
          <mxGeometry relative="1" as="geometry">
            <mxPoint x="-20" y="60" as="sourcePoint" />
            <mxPoint x="-22" y="147" as="targetPoint" />
          </mxGeometry>
        </mxCell>
        <mxCell id="P_y4aerGXSMcK7ylAQnV-222" value="출발지" style="ellipse;whiteSpace=wrap;html=1;align=center;" parent="1" vertex="1">
          <mxGeometry x="-100" y="50" width="100" height="40" as="geometry" />
        </mxCell>
        <mxCell id="P_y4aerGXSMcK7ylAQnV-223" value="" style="endArrow=none;html=1;rounded=0;entryX=0.5;entryY=0;entryDx=0;entryDy=0;exitX=0.5;exitY=1;exitDx=0;exitDy=0;" parent="1" source="P_y4aerGXSMcK7ylAQnV-224" target="P_y4aerGXSMcK7ylAQnV-205" edge="1">
          <mxGeometry relative="1" as="geometry">
            <mxPoint y="30" as="sourcePoint" />
            <mxPoint x="17" y="150" as="targetPoint" />
          </mxGeometry>
        </mxCell>
        <mxCell id="P_y4aerGXSMcK7ylAQnV-224" value="출발시간" style="ellipse;whiteSpace=wrap;html=1;align=center;" parent="1" vertex="1">
          <mxGeometry x="-61.55" width="100" height="40" as="geometry" />
        </mxCell>
        <mxCell id="P_y4aerGXSMcK7ylAQnV-225" value="" style="endArrow=none;html=1;rounded=0;exitX=0.75;exitY=0;exitDx=0;exitDy=0;" parent="1" source="P_y4aerGXSMcK7ylAQnV-205" target="P_y4aerGXSMcK7ylAQnV-226" edge="1">
          <mxGeometry relative="1" as="geometry">
            <mxPoint x="-30" y="110" as="sourcePoint" />
            <mxPoint x="70" y="50" as="targetPoint" />
          </mxGeometry>
        </mxCell>
        <mxCell id="P_y4aerGXSMcK7ylAQnV-226" value="도착시간" style="ellipse;whiteSpace=wrap;html=1;align=center;" parent="1" vertex="1">
          <mxGeometry x="48.45" y="2.2737367544323206e-13" width="100" height="40" as="geometry" />
        </mxCell>
        <mxCell id="P_y4aerGXSMcK7ylAQnV-228" value="" style="endArrow=none;html=1;rounded=0;exitX=1;exitY=0;exitDx=0;exitDy=0;" parent="1" source="P_y4aerGXSMcK7ylAQnV-205" target="P_y4aerGXSMcK7ylAQnV-230" edge="1">
          <mxGeometry relative="1" as="geometry">
            <mxPoint x="75" y="150" as="sourcePoint" />
            <mxPoint x="150" y="70" as="targetPoint" />
          </mxGeometry>
        </mxCell>
        <mxCell id="P_y4aerGXSMcK7ylAQnV-230" value="예매번호" style="ellipse;whiteSpace=wrap;html=1;align=center;fontStyle=4;" parent="1" vertex="1">
          <mxGeometry x="100" y="50.00000000000023" width="100" height="40" as="geometry" />
        </mxCell>
        <mxCell id="P_y4aerGXSMcK7ylAQnV-231" value="" style="endArrow=none;html=1;rounded=0;exitX=1;exitY=0.25;exitDx=0;exitDy=0;" parent="1" source="P_y4aerGXSMcK7ylAQnV-205" target="P_y4aerGXSMcK7ylAQnV-232" edge="1">
          <mxGeometry relative="1" as="geometry">
            <mxPoint x="90" y="150" as="sourcePoint" />
            <mxPoint x="160" y="120" as="targetPoint" />
          </mxGeometry>
        </mxCell>
        <mxCell id="P_y4aerGXSMcK7ylAQnV-232" value="등급" style="ellipse;whiteSpace=wrap;html=1;align=center;" parent="1" vertex="1">
          <mxGeometry x="130" y="99.62000000000023" width="100" height="40" as="geometry" />
        </mxCell>
        <mxCell id="P_y4aerGXSMcK7ylAQnV-233" value="" style="endArrow=none;html=1;rounded=0;entryX=0;entryY=1;entryDx=0;entryDy=0;exitX=1;exitY=0;exitDx=0;exitDy=0;" parent="1" source="P_y4aerGXSMcK7ylAQnV-235" target="P_y4aerGXSMcK7ylAQnV-205" edge="1">
          <mxGeometry relative="1" as="geometry">
            <mxPoint x="-220" y="260" as="sourcePoint" />
            <mxPoint x="-10" y="280" as="targetPoint" />
          </mxGeometry>
        </mxCell>
        <mxCell id="P_y4aerGXSMcK7ylAQnV-234" value="1" style="resizable=0;html=1;whiteSpace=wrap;align=right;verticalAlign=bottom;" parent="P_y4aerGXSMcK7ylAQnV-233" connectable="0" vertex="1">
          <mxGeometry x="1" relative="1" as="geometry" />
        </mxCell>
        <mxCell id="P_y4aerGXSMcK7ylAQnV-235" value="지정" style="shape=rhombus;perimeter=rhombusPerimeter;whiteSpace=wrap;html=1;align=center;" parent="1" vertex="1">
          <mxGeometry x="-340" y="260" width="120" height="60" as="geometry" />
        </mxCell>
        <mxCell id="P_y4aerGXSMcK7ylAQnV-236" value="" style="endArrow=none;html=1;rounded=0;entryX=0;entryY=0;entryDx=0;entryDy=0;exitX=0.5;exitY=1;exitDx=0;exitDy=0;" parent="1" source="P_y4aerGXSMcK7ylAQnV-237" target="P_y4aerGXSMcK7ylAQnV-235" edge="1">
          <mxGeometry relative="1" as="geometry">
            <mxPoint x="-350" y="240" as="sourcePoint" />
            <mxPoint x="-150" y="310" as="targetPoint" />
          </mxGeometry>
        </mxCell>
        <mxCell id="P_y4aerGXSMcK7ylAQnV-237" value="좌석" style="ellipse;whiteSpace=wrap;html=1;align=center;" parent="1" vertex="1">
          <mxGeometry x="-420" y="200" width="100" height="40" as="geometry" />
        </mxCell>
        <mxCell id="P_y4aerGXSMcK7ylAQnV-240" value="" style="endArrow=none;html=1;rounded=0;entryX=1;entryY=0;entryDx=0;entryDy=0;exitX=0;exitY=1;exitDx=0;exitDy=0;" parent="1" source="P_y4aerGXSMcK7ylAQnV-235" target="P_y4aerGXSMcK7ylAQnV-123" edge="1">
          <mxGeometry relative="1" as="geometry">
            <mxPoint x="-440" y="350" as="sourcePoint" />
            <mxPoint x="-280" y="350" as="targetPoint" />
          </mxGeometry>
        </mxCell>
        <mxCell id="P_y4aerGXSMcK7ylAQnV-241" value="1" style="resizable=0;html=1;whiteSpace=wrap;align=right;verticalAlign=bottom;" parent="P_y4aerGXSMcK7ylAQnV-240" connectable="0" vertex="1">
          <mxGeometry x="1" relative="1" as="geometry" />
        </mxCell>
        <mxCell id="OF6cTdFt37tzbmLH_Fab-1" value="운항" style="whiteSpace=wrap;html=1;align=center;" parent="1" vertex="1">
          <mxGeometry x="2930" y="430" width="100" height="40" as="geometry" />
        </mxCell>
        <mxCell id="OF6cTdFt37tzbmLH_Fab-2" value="" style="endArrow=none;html=1;rounded=0;entryX=0.5;entryY=1;entryDx=0;entryDy=0;exitX=0.5;exitY=0;exitDx=0;exitDy=0;" parent="1" source="OF6cTdFt37tzbmLH_Fab-3" target="OF6cTdFt37tzbmLH_Fab-1" edge="1">
          <mxGeometry relative="1" as="geometry">
            <mxPoint x="3080" y="600" as="sourcePoint" />
            <mxPoint x="3160" y="690" as="targetPoint" />
          </mxGeometry>
        </mxCell>
        <mxCell id="OF6cTdFt37tzbmLH_Fab-3" value="출발시간" style="ellipse;whiteSpace=wrap;html=1;align=center;" parent="1" vertex="1">
          <mxGeometry x="2870" y="644.14" width="100" height="40" as="geometry" />
        </mxCell>
        <mxCell id="OF6cTdFt37tzbmLH_Fab-4" value="" style="endArrow=none;html=1;rounded=0;entryX=0.599;entryY=0.992;entryDx=0;entryDy=0;exitX=0.5;exitY=0;exitDx=0;exitDy=0;entryPerimeter=0;" parent="1" source="OF6cTdFt37tzbmLH_Fab-5" target="OF6cTdFt37tzbmLH_Fab-1" edge="1">
          <mxGeometry relative="1" as="geometry">
            <mxPoint x="3140" y="520" as="sourcePoint" />
            <mxPoint x="3185" y="690" as="targetPoint" />
          </mxGeometry>
        </mxCell>
        <mxCell id="OF6cTdFt37tzbmLH_Fab-5" value="도착시간" style="ellipse;whiteSpace=wrap;html=1;align=center;" parent="1" vertex="1">
          <mxGeometry x="2930" y="699.14" width="100" height="40" as="geometry" />
        </mxCell>
        <mxCell id="OF6cTdFt37tzbmLH_Fab-6" value="" style="endArrow=none;html=1;rounded=0;exitX=0.5;exitY=0;exitDx=0;exitDy=0;entryX=0.668;entryY=1.004;entryDx=0;entryDy=0;entryPerimeter=0;" parent="1" source="OF6cTdFt37tzbmLH_Fab-7" target="OF6cTdFt37tzbmLH_Fab-1" edge="1">
          <mxGeometry relative="1" as="geometry">
            <mxPoint x="3220" y="590" as="sourcePoint" />
            <mxPoint x="3210" y="690" as="targetPoint" />
          </mxGeometry>
        </mxCell>
        <mxCell id="OF6cTdFt37tzbmLH_Fab-7" value="상태" style="ellipse;whiteSpace=wrap;html=1;align=center;" parent="1" vertex="1">
          <mxGeometry x="2990" y="630" width="100" height="40" as="geometry" />
        </mxCell>
        <mxCell id="OF6cTdFt37tzbmLH_Fab-8" value="" style="endArrow=none;html=1;rounded=0;exitX=0.5;exitY=0;exitDx=0;exitDy=0;" parent="1" source="OF6cTdFt37tzbmLH_Fab-9" edge="1">
          <mxGeometry relative="1" as="geometry">
            <mxPoint x="3320" y="560" as="sourcePoint" />
            <mxPoint x="3008" y="470" as="targetPoint" />
          </mxGeometry>
        </mxCell>
        <mxCell id="OF6cTdFt37tzbmLH_Fab-9" value="출발공항" style="ellipse;whiteSpace=wrap;html=1;align=center;" parent="1" vertex="1">
          <mxGeometry x="3060" y="679.14" width="100" height="40" as="geometry" />
        </mxCell>
        <mxCell id="OF6cTdFt37tzbmLH_Fab-10" value="" style="endArrow=none;html=1;rounded=0;entryX=1;entryY=1;entryDx=0;entryDy=0;exitX=0;exitY=0;exitDx=0;exitDy=0;" parent="1" source="OF6cTdFt37tzbmLH_Fab-11" target="OF6cTdFt37tzbmLH_Fab-1" edge="1">
          <mxGeometry relative="1" as="geometry">
            <mxPoint x="3385" y="620" as="sourcePoint" />
            <mxPoint x="3260" y="690" as="targetPoint" />
          </mxGeometry>
        </mxCell>
        <mxCell id="OF6cTdFt37tzbmLH_Fab-11" value="도착공항" style="ellipse;whiteSpace=wrap;html=1;align=center;" parent="1" vertex="1">
          <mxGeometry x="3120" y="630" width="100" height="40" as="geometry" />
        </mxCell>
        <mxCell id="OF6cTdFt37tzbmLH_Fab-12" value="" style="endArrow=none;html=1;rounded=0;entryX=1;entryY=0.75;entryDx=0;entryDy=0;exitX=0.5;exitY=0;exitDx=0;exitDy=0;" parent="1" source="OF6cTdFt37tzbmLH_Fab-95" target="OF6cTdFt37tzbmLH_Fab-1" edge="1">
          <mxGeometry relative="1" as="geometry">
            <mxPoint x="3380" y="630" as="sourcePoint" />
            <mxPoint x="3260" y="690" as="targetPoint" />
          </mxGeometry>
        </mxCell>
        <mxCell id="OF6cTdFt37tzbmLH_Fab-13" value="" style="endArrow=none;html=1;rounded=0;entryX=0;entryY=0.5;entryDx=0;entryDy=0;exitX=1;exitY=0.5;exitDx=0;exitDy=0;" parent="1" source="OF6cTdFt37tzbmLH_Fab-1" target="OF6cTdFt37tzbmLH_Fab-49" edge="1">
          <mxGeometry relative="1" as="geometry">
            <mxPoint x="3030" y="450" as="sourcePoint" />
            <mxPoint x="3190" y="450" as="targetPoint" />
          </mxGeometry>
        </mxCell>
        <mxCell id="OF6cTdFt37tzbmLH_Fab-14" value="항공기" style="whiteSpace=wrap;html=1;" parent="1" vertex="1">
          <mxGeometry x="3430" y="420" width="120" height="60" as="geometry" />
        </mxCell>
        <mxCell id="OF6cTdFt37tzbmLH_Fab-16" value="" style="endArrow=none;html=1;rounded=0;entryX=0.25;entryY=1;entryDx=0;entryDy=0;exitX=0.76;exitY=0.083;exitDx=0;exitDy=0;exitPerimeter=0;" parent="1" source="OF6cTdFt37tzbmLH_Fab-94" target="OF6cTdFt37tzbmLH_Fab-14" edge="1">
          <mxGeometry relative="1" as="geometry">
            <mxPoint x="3410" y="340" as="sourcePoint" />
            <mxPoint x="3510" y="380" as="targetPoint" />
          </mxGeometry>
        </mxCell>
        <mxCell id="OF6cTdFt37tzbmLH_Fab-17" value="모델" style="ellipse;whiteSpace=wrap;html=1;align=center;" parent="1" vertex="1">
          <mxGeometry x="3460" y="600" width="100" height="40" as="geometry" />
        </mxCell>
        <mxCell id="OF6cTdFt37tzbmLH_Fab-18" value="" style="endArrow=none;html=1;rounded=0;entryX=0.5;entryY=1;entryDx=0;entryDy=0;exitX=0.44;exitY=0.042;exitDx=0;exitDy=0;exitPerimeter=0;" parent="1" source="OF6cTdFt37tzbmLH_Fab-17" target="OF6cTdFt37tzbmLH_Fab-14" edge="1">
          <mxGeometry relative="1" as="geometry">
            <mxPoint x="3410" y="340" as="sourcePoint" />
            <mxPoint x="3470" y="430" as="targetPoint" />
          </mxGeometry>
        </mxCell>
        <mxCell id="OF6cTdFt37tzbmLH_Fab-19" value="" style="endArrow=none;html=1;rounded=0;entryX=1;entryY=0;entryDx=0;entryDy=0;exitX=0;exitY=0.5;exitDx=0;exitDy=0;" parent="1" source="OF6cTdFt37tzbmLH_Fab-20" target="OF6cTdFt37tzbmLH_Fab-14" edge="1">
          <mxGeometry relative="1" as="geometry">
            <mxPoint x="3600" y="350" as="sourcePoint" />
            <mxPoint x="3480" y="440" as="targetPoint" />
          </mxGeometry>
        </mxCell>
        <mxCell id="OF6cTdFt37tzbmLH_Fab-20" value="운행거리" style="ellipse;whiteSpace=wrap;html=1;align=center;" parent="1" vertex="1">
          <mxGeometry x="3660" y="360" width="100" height="40" as="geometry" />
        </mxCell>
        <mxCell id="OF6cTdFt37tzbmLH_Fab-21" value="" style="endArrow=none;html=1;rounded=0;entryX=1;entryY=0.5;entryDx=0;entryDy=0;exitX=0;exitY=0.5;exitDx=0;exitDy=0;" parent="1" source="OF6cTdFt37tzbmLH_Fab-22" target="OF6cTdFt37tzbmLH_Fab-14" edge="1">
          <mxGeometry relative="1" as="geometry">
            <mxPoint x="3670" y="350" as="sourcePoint" />
            <mxPoint x="3490" y="450" as="targetPoint" />
          </mxGeometry>
        </mxCell>
        <mxCell id="OF6cTdFt37tzbmLH_Fab-22" value="수용인원" style="ellipse;whiteSpace=wrap;html=1;align=center;" parent="1" vertex="1">
          <mxGeometry x="3672" y="430" width="100" height="40" as="geometry" />
        </mxCell>
        <mxCell id="OF6cTdFt37tzbmLH_Fab-23" value="" style="endArrow=none;html=1;rounded=0;entryX=0.75;entryY=1;entryDx=0;entryDy=0;exitX=0;exitY=0.5;exitDx=0;exitDy=0;" parent="1" source="OF6cTdFt37tzbmLH_Fab-24" target="OF6cTdFt37tzbmLH_Fab-14" edge="1">
          <mxGeometry relative="1" as="geometry">
            <mxPoint x="3650" y="430" as="sourcePoint" />
            <mxPoint x="3500" y="460" as="targetPoint" />
          </mxGeometry>
        </mxCell>
        <mxCell id="OF6cTdFt37tzbmLH_Fab-24" value="항공기명" style="ellipse;whiteSpace=wrap;html=1;align=center;" parent="1" vertex="1">
          <mxGeometry x="3620" y="565" width="100" height="40" as="geometry" />
        </mxCell>
        <mxCell id="OF6cTdFt37tzbmLH_Fab-25" value="" style="shape=link;html=1;rounded=0;entryX=1;entryY=0;entryDx=0;entryDy=0;" parent="1" source="OF6cTdFt37tzbmLH_Fab-48" target="OF6cTdFt37tzbmLH_Fab-1" edge="1">
          <mxGeometry relative="1" as="geometry">
            <mxPoint x="3620" y="670.86" as="sourcePoint" />
            <mxPoint x="3490" y="561" as="targetPoint" />
          </mxGeometry>
        </mxCell>
        <mxCell id="OF6cTdFt37tzbmLH_Fab-26" value="1" style="resizable=0;html=1;whiteSpace=wrap;align=right;verticalAlign=bottom;" parent="OF6cTdFt37tzbmLH_Fab-25" connectable="0" vertex="1">
          <mxGeometry x="1" relative="1" as="geometry" />
        </mxCell>
        <mxCell id="OF6cTdFt37tzbmLH_Fab-27" value="" style="endArrow=none;html=1;rounded=0;entryX=0.5;entryY=0;entryDx=0;entryDy=0;" parent="1" source="OF6cTdFt37tzbmLH_Fab-48" target="OF6cTdFt37tzbmLH_Fab-29" edge="1">
          <mxGeometry relative="1" as="geometry">
            <mxPoint x="3660" y="710.86" as="sourcePoint" />
            <mxPoint x="3710" y="850.86" as="targetPoint" />
          </mxGeometry>
        </mxCell>
        <mxCell id="OF6cTdFt37tzbmLH_Fab-28" value="N" style="resizable=0;html=1;whiteSpace=wrap;align=right;verticalAlign=bottom;" parent="OF6cTdFt37tzbmLH_Fab-27" connectable="0" vertex="1">
          <mxGeometry x="1" relative="1" as="geometry">
            <mxPoint x="-50" y="34" as="offset" />
          </mxGeometry>
        </mxCell>
        <mxCell id="OF6cTdFt37tzbmLH_Fab-29" value="기장" style="whiteSpace=wrap;html=1;align=center;" parent="1" vertex="1">
          <mxGeometry x="3530" y="120.00000000000004" width="100" height="40" as="geometry" />
        </mxCell>
        <mxCell id="OF6cTdFt37tzbmLH_Fab-30" value="" style="endArrow=none;html=1;rounded=0;exitX=1;exitY=0;exitDx=0;exitDy=0;" parent="1" source="OF6cTdFt37tzbmLH_Fab-29" target="OF6cTdFt37tzbmLH_Fab-31" edge="1">
          <mxGeometry relative="1" as="geometry">
            <mxPoint x="3970" y="-43.66999999999996" as="sourcePoint" />
            <mxPoint x="4030" y="-113.66999999999996" as="targetPoint" />
          </mxGeometry>
        </mxCell>
        <mxCell id="OF6cTdFt37tzbmLH_Fab-31" value="이메일 주소" style="ellipse;whiteSpace=wrap;html=1;align=center;" parent="1" vertex="1">
          <mxGeometry x="3692.5" y="50.00000000000006" width="100" height="40" as="geometry" />
        </mxCell>
        <mxCell id="OF6cTdFt37tzbmLH_Fab-32" value="" style="endArrow=none;html=1;rounded=0;exitX=1;exitY=0.5;exitDx=0;exitDy=0;" parent="1" source="OF6cTdFt37tzbmLH_Fab-29" target="OF6cTdFt37tzbmLH_Fab-34" edge="1">
          <mxGeometry relative="1" as="geometry">
            <mxPoint x="3930" y="-73.66999999999996" as="sourcePoint" />
            <mxPoint x="4020.6803038083926" y="-56.95797974610707" as="targetPoint" />
          </mxGeometry>
        </mxCell>
        <mxCell id="OF6cTdFt37tzbmLH_Fab-34" value="성별" style="ellipse;whiteSpace=wrap;html=1;align=center;" parent="1" vertex="1">
          <mxGeometry x="3730.0003038083923" y="120.00202025389292" width="100" height="40" as="geometry" />
        </mxCell>
        <mxCell id="OF6cTdFt37tzbmLH_Fab-36" value="" style="endArrow=none;html=1;rounded=0;exitX=0.75;exitY=1;exitDx=0;exitDy=0;" parent="1" source="OF6cTdFt37tzbmLH_Fab-29" target="OF6cTdFt37tzbmLH_Fab-37" edge="1">
          <mxGeometry relative="1" as="geometry">
            <mxPoint x="3974.999999999999" y="-36.550000000000296" as="sourcePoint" />
            <mxPoint x="3980" y="53.450000000000045" as="targetPoint" />
          </mxGeometry>
        </mxCell>
        <mxCell id="OF6cTdFt37tzbmLH_Fab-37" value="성명" style="ellipse;whiteSpace=wrap;html=1;align=center;" parent="1" vertex="1">
          <mxGeometry x="3708.5" y="223.45000000000005" width="100" height="40" as="geometry" />
        </mxCell>
        <mxCell id="OF6cTdFt37tzbmLH_Fab-38" value="" style="endArrow=none;html=1;rounded=0;exitX=0;exitY=1;exitDx=0;exitDy=0;" parent="1" source="OF6cTdFt37tzbmLH_Fab-37" target="OF6cTdFt37tzbmLH_Fab-39" edge="1">
          <mxGeometry relative="1" as="geometry">
            <mxPoint x="3818.5" y="173.45000000000005" as="sourcePoint" />
            <mxPoint x="3718.5" y="303.45000000000005" as="targetPoint" />
          </mxGeometry>
        </mxCell>
        <mxCell id="OF6cTdFt37tzbmLH_Fab-39" value="성" style="ellipse;whiteSpace=wrap;html=1;align=center;" parent="1" vertex="1">
          <mxGeometry x="3638.5" y="276.74" width="100" height="40" as="geometry" />
        </mxCell>
        <mxCell id="OF6cTdFt37tzbmLH_Fab-40" value="" style="endArrow=none;html=1;rounded=0;exitX=1;exitY=1;exitDx=0;exitDy=0;" parent="1" source="OF6cTdFt37tzbmLH_Fab-37" target="OF6cTdFt37tzbmLH_Fab-41" edge="1">
          <mxGeometry relative="1" as="geometry">
            <mxPoint x="3828.5" y="183.45000000000005" as="sourcePoint" />
            <mxPoint x="3828.5" y="293.45000000000005" as="targetPoint" />
          </mxGeometry>
        </mxCell>
        <mxCell id="OF6cTdFt37tzbmLH_Fab-41" value="이름" style="ellipse;whiteSpace=wrap;html=1;align=center;" parent="1" vertex="1">
          <mxGeometry x="3778.5" y="273.45000000000005" width="100" height="40" as="geometry" />
        </mxCell>
        <mxCell id="OF6cTdFt37tzbmLH_Fab-42" value="" style="endArrow=none;html=1;rounded=0;exitX=0.3;exitY=1;exitDx=0;exitDy=0;exitPerimeter=0;" parent="1" source="OF6cTdFt37tzbmLH_Fab-29" target="OF6cTdFt37tzbmLH_Fab-93" edge="1">
          <mxGeometry relative="1" as="geometry">
            <mxPoint x="3980" y="-23.66999999999996" as="sourcePoint" />
            <mxPoint x="3806.799780027779" y="-33.10147532237886" as="targetPoint" />
          </mxGeometry>
        </mxCell>
        <mxCell id="OF6cTdFt37tzbmLH_Fab-43" value="" style="endArrow=none;html=1;rounded=0;entryX=0.25;entryY=1;entryDx=0;entryDy=0;exitX=0.5;exitY=0;exitDx=0;exitDy=0;" parent="1" source="OF6cTdFt37tzbmLH_Fab-47" target="OF6cTdFt37tzbmLH_Fab-1" edge="1">
          <mxGeometry relative="1" as="geometry">
            <mxPoint x="2930" y="590" as="sourcePoint" />
            <mxPoint x="3090" y="590" as="targetPoint" />
          </mxGeometry>
        </mxCell>
        <mxCell id="OF6cTdFt37tzbmLH_Fab-44" value="N" style="resizable=0;html=1;whiteSpace=wrap;align=right;verticalAlign=bottom;" parent="OF6cTdFt37tzbmLH_Fab-43" connectable="0" vertex="1">
          <mxGeometry x="1" relative="1" as="geometry" />
        </mxCell>
        <mxCell id="OF6cTdFt37tzbmLH_Fab-45" value="" style="endArrow=none;html=1;rounded=0;entryX=0;entryY=1;entryDx=0;entryDy=0;exitX=0.5;exitY=0;exitDx=0;exitDy=0;" parent="1" source="OF6cTdFt37tzbmLH_Fab-50" target="OF6cTdFt37tzbmLH_Fab-1" edge="1">
          <mxGeometry relative="1" as="geometry">
            <mxPoint x="3060" y="680" as="sourcePoint" />
            <mxPoint x="2970" y="480" as="targetPoint" />
          </mxGeometry>
        </mxCell>
        <mxCell id="OF6cTdFt37tzbmLH_Fab-46" value="N" style="resizable=0;html=1;whiteSpace=wrap;align=right;verticalAlign=bottom;" parent="OF6cTdFt37tzbmLH_Fab-45" connectable="0" vertex="1">
          <mxGeometry x="1" relative="1" as="geometry" />
        </mxCell>
        <mxCell id="OF6cTdFt37tzbmLH_Fab-47" value="착륙" style="shape=rhombus;perimeter=rhombusPerimeter;whiteSpace=wrap;html=1;align=center;" parent="1" vertex="1">
          <mxGeometry x="2680" y="699.14" width="120" height="60" as="geometry" />
        </mxCell>
        <mxCell id="OF6cTdFt37tzbmLH_Fab-48" value="할당" style="shape=rhombus;perimeter=rhombusPerimeter;whiteSpace=wrap;html=1;align=center;" parent="1" vertex="1">
          <mxGeometry x="3260" y="220.00000000000006" width="120" height="60" as="geometry" />
        </mxCell>
        <mxCell id="OF6cTdFt37tzbmLH_Fab-49" value="비행" style="shape=rhombus;perimeter=rhombusPerimeter;whiteSpace=wrap;html=1;align=center;" parent="1" vertex="1">
          <mxGeometry x="3188" y="420" width="120" height="60" as="geometry" />
        </mxCell>
        <mxCell id="OF6cTdFt37tzbmLH_Fab-50" value="이륙" style="shape=rhombus;perimeter=rhombusPerimeter;whiteSpace=wrap;html=1;align=center;" parent="1" vertex="1">
          <mxGeometry x="2490" y="679.14" width="120" height="60" as="geometry" />
        </mxCell>
        <mxCell id="OF6cTdFt37tzbmLH_Fab-56" value="관리" style="shape=rhombus;perimeter=rhombusPerimeter;whiteSpace=wrap;html=1;align=center;" parent="1" vertex="1">
          <mxGeometry x="2920" y="309.99999999999994" width="120" height="60" as="geometry" />
        </mxCell>
        <mxCell id="OF6cTdFt37tzbmLH_Fab-57" value="" style="shape=link;html=1;rounded=0;entryX=0.5;entryY=0;entryDx=0;entryDy=0;exitX=0.5;exitY=1;exitDx=0;exitDy=0;" parent="1" source="OF6cTdFt37tzbmLH_Fab-56" target="OF6cTdFt37tzbmLH_Fab-1" edge="1">
          <mxGeometry relative="1" as="geometry">
            <mxPoint x="2960" y="290" as="sourcePoint" />
            <mxPoint x="3040" y="480" as="targetPoint" />
          </mxGeometry>
        </mxCell>
        <mxCell id="OF6cTdFt37tzbmLH_Fab-58" value="1" style="resizable=0;html=1;whiteSpace=wrap;align=right;verticalAlign=bottom;" parent="OF6cTdFt37tzbmLH_Fab-57" connectable="0" vertex="1">
          <mxGeometry x="1" relative="1" as="geometry" />
        </mxCell>
        <mxCell id="OF6cTdFt37tzbmLH_Fab-59" value="" style="shape=link;html=1;rounded=0;entryX=0;entryY=0.5;entryDx=0;entryDy=0;exitX=1;exitY=0.5;exitDx=0;exitDy=0;" parent="1" source="OF6cTdFt37tzbmLH_Fab-82" target="OF6cTdFt37tzbmLH_Fab-1" edge="1">
          <mxGeometry relative="1" as="geometry">
            <mxPoint x="2770" y="450" as="sourcePoint" />
            <mxPoint x="2940" y="480" as="targetPoint" />
          </mxGeometry>
        </mxCell>
        <mxCell id="OF6cTdFt37tzbmLH_Fab-60" value="1" style="resizable=0;html=1;whiteSpace=wrap;align=right;verticalAlign=bottom;" parent="OF6cTdFt37tzbmLH_Fab-59" connectable="0" vertex="1">
          <mxGeometry x="1" relative="1" as="geometry" />
        </mxCell>
        <mxCell id="OF6cTdFt37tzbmLH_Fab-63" value="승무원" style="whiteSpace=wrap;html=1;align=center;" parent="1" vertex="1">
          <mxGeometry x="2930" y="195.07" width="100" height="40" as="geometry" />
        </mxCell>
        <mxCell id="OF6cTdFt37tzbmLH_Fab-64" value="" style="endArrow=none;html=1;rounded=0;exitX=0.75;exitY=0;exitDx=0;exitDy=0;" parent="1" source="OF6cTdFt37tzbmLH_Fab-63" target="OF6cTdFt37tzbmLH_Fab-65" edge="1">
          <mxGeometry relative="1" as="geometry">
            <mxPoint x="3205" y="-23.290000000000305" as="sourcePoint" />
            <mxPoint x="3335" y="-146.7100000000001" as="targetPoint" />
          </mxGeometry>
        </mxCell>
        <mxCell id="OF6cTdFt37tzbmLH_Fab-65" value="성명" style="ellipse;whiteSpace=wrap;html=1;align=center;" parent="1" vertex="1">
          <mxGeometry x="3005" y="119.99999999999994" width="100" height="40" as="geometry" />
        </mxCell>
        <mxCell id="OF6cTdFt37tzbmLH_Fab-66" value="" style="endArrow=none;html=1;rounded=0;exitX=0.55;exitY=-0.05;exitDx=0;exitDy=0;exitPerimeter=0;" parent="1" source="OF6cTdFt37tzbmLH_Fab-65" target="OF6cTdFt37tzbmLH_Fab-67" edge="1">
          <mxGeometry relative="1" as="geometry">
            <mxPoint x="3035" y="29.999999999999943" as="sourcePoint" />
            <mxPoint x="3365" y="-196.7100000000001" as="targetPoint" />
          </mxGeometry>
        </mxCell>
        <mxCell id="OF6cTdFt37tzbmLH_Fab-67" value="성" style="ellipse;whiteSpace=wrap;html=1;align=center;" parent="1" vertex="1">
          <mxGeometry x="3045" y="59.99999999999994" width="100" height="40" as="geometry" />
        </mxCell>
        <mxCell id="OF6cTdFt37tzbmLH_Fab-68" value="" style="endArrow=none;html=1;rounded=0;exitX=0.981;exitY=0.314;exitDx=0;exitDy=0;entryX=0.5;entryY=0;entryDx=0;entryDy=0;exitPerimeter=0;" parent="1" source="OF6cTdFt37tzbmLH_Fab-65" target="OF6cTdFt37tzbmLH_Fab-69" edge="1">
          <mxGeometry relative="1" as="geometry">
            <mxPoint x="3285" y="-56.71000000000009" as="sourcePoint" />
            <mxPoint x="3405" y="-146.7100000000001" as="targetPoint" />
          </mxGeometry>
        </mxCell>
        <mxCell id="OF6cTdFt37tzbmLH_Fab-69" value="이름" style="ellipse;whiteSpace=wrap;html=1;align=center;" parent="1" vertex="1">
          <mxGeometry x="3115" y="99.99999999999994" width="100" height="40" as="geometry" />
        </mxCell>
        <mxCell id="OF6cTdFt37tzbmLH_Fab-72" value="" style="endArrow=none;html=1;rounded=0;exitX=1;exitY=0.5;exitDx=0;exitDy=0;" parent="1" source="OF6cTdFt37tzbmLH_Fab-63" target="OF6cTdFt37tzbmLH_Fab-73" edge="1">
          <mxGeometry relative="1" as="geometry">
            <mxPoint x="3030" y="221.64999999999992" as="sourcePoint" />
            <mxPoint x="3110" y="191.64999999999992" as="targetPoint" />
          </mxGeometry>
        </mxCell>
        <mxCell id="OF6cTdFt37tzbmLH_Fab-73" value="성별" style="ellipse;whiteSpace=wrap;html=1;align=center;" parent="1" vertex="1">
          <mxGeometry x="3074" y="219.99999999999994" width="100" height="40" as="geometry" />
        </mxCell>
        <mxCell id="OF6cTdFt37tzbmLH_Fab-74" value="" style="endArrow=none;html=1;rounded=0;exitX=0.88;exitY=1.018;exitDx=0;exitDy=0;exitPerimeter=0;" parent="1" source="OF6cTdFt37tzbmLH_Fab-63" target="OF6cTdFt37tzbmLH_Fab-75" edge="1">
          <mxGeometry relative="1" as="geometry">
            <mxPoint x="3040" y="231.64999999999992" as="sourcePoint" />
            <mxPoint x="3100" y="241.64999999999992" as="targetPoint" />
          </mxGeometry>
        </mxCell>
        <mxCell id="OF6cTdFt37tzbmLH_Fab-75" value="이메일주소" style="ellipse;whiteSpace=wrap;html=1;align=center;" parent="1" vertex="1">
          <mxGeometry x="3015" y="279.99999999999994" width="100" height="40" as="geometry" />
        </mxCell>
        <mxCell id="OF6cTdFt37tzbmLH_Fab-81" value="" style="endArrow=none;html=1;rounded=0;exitX=0;exitY=0.5;exitDx=0;exitDy=0;entryX=1;entryY=0.5;entryDx=0;entryDy=0;" parent="1" source="OF6cTdFt37tzbmLH_Fab-63" target="OF6cTdFt37tzbmLH_Fab-92" edge="1">
          <mxGeometry relative="1" as="geometry">
            <mxPoint x="3023" y="193.64999999999992" as="sourcePoint" />
            <mxPoint x="2914.5637623224666" y="202.5172142038187" as="targetPoint" />
          </mxGeometry>
        </mxCell>
        <mxCell id="OF6cTdFt37tzbmLH_Fab-82" value="부여" style="shape=rhombus;perimeter=rhombusPerimeter;whiteSpace=wrap;html=1;align=center;" parent="1" vertex="1">
          <mxGeometry x="2650" y="420" width="120" height="60" as="geometry" />
        </mxCell>
        <mxCell id="OF6cTdFt37tzbmLH_Fab-83" value="" style="shape=link;html=1;rounded=0;exitX=0;exitY=0.5;exitDx=0;exitDy=0;entryX=1;entryY=0.5;entryDx=0;entryDy=0;" parent="1" source="OF6cTdFt37tzbmLH_Fab-82" target="OF6cTdFt37tzbmLH_Fab-85" edge="1">
          <mxGeometry relative="1" as="geometry">
            <mxPoint x="2570" y="440" as="sourcePoint" />
            <mxPoint x="2480" y="450" as="targetPoint" />
          </mxGeometry>
        </mxCell>
        <mxCell id="OF6cTdFt37tzbmLH_Fab-84" value="N" style="resizable=0;html=1;whiteSpace=wrap;align=right;verticalAlign=bottom;" parent="OF6cTdFt37tzbmLH_Fab-83" connectable="0" vertex="1">
          <mxGeometry x="1" relative="1" as="geometry">
            <mxPoint x="10" as="offset" />
          </mxGeometry>
        </mxCell>
        <mxCell id="OF6cTdFt37tzbmLH_Fab-85" value="티켓" style="whiteSpace=wrap;html=1;align=center;" parent="1" vertex="1">
          <mxGeometry x="2370" y="430" width="100" height="40" as="geometry" />
        </mxCell>
        <mxCell id="OF6cTdFt37tzbmLH_Fab-86" value="" style="endArrow=none;html=1;rounded=0;exitX=0;exitY=0;exitDx=0;exitDy=0;entryX=0.5;entryY=1;entryDx=0;entryDy=0;" parent="1" source="OF6cTdFt37tzbmLH_Fab-85" target="OF6cTdFt37tzbmLH_Fab-89" edge="1">
          <mxGeometry relative="1" as="geometry">
            <mxPoint x="1550" y="-30" as="sourcePoint" />
            <mxPoint x="1511.5652675964066" y="-55.728279686534165" as="targetPoint" />
          </mxGeometry>
        </mxCell>
        <mxCell id="OF6cTdFt37tzbmLH_Fab-87" value="" style="endArrow=none;html=1;rounded=0;exitX=0;exitY=1;exitDx=0;exitDy=0;" parent="1" source="OF6cTdFt37tzbmLH_Fab-85" target="OF6cTdFt37tzbmLH_Fab-88" edge="1">
          <mxGeometry relative="1" as="geometry">
            <mxPoint x="1550" y="-20" as="sourcePoint" />
            <mxPoint x="1470" y="-20" as="targetPoint" />
          </mxGeometry>
        </mxCell>
        <mxCell id="OF6cTdFt37tzbmLH_Fab-88" value="발행일" style="ellipse;whiteSpace=wrap;html=1;align=center;" parent="1" vertex="1">
          <mxGeometry x="2250" y="490" width="100" height="40" as="geometry" />
        </mxCell>
        <mxCell id="OF6cTdFt37tzbmLH_Fab-89" value="티켓 번호" style="ellipse;whiteSpace=wrap;html=1;align=center;fontStyle=4;" parent="1" vertex="1">
          <mxGeometry x="2250" y="350" width="100" height="40" as="geometry" />
        </mxCell>
        <mxCell id="OF6cTdFt37tzbmLH_Fab-90" value="" style="endArrow=none;html=1;rounded=0;exitX=1;exitY=1;exitDx=0;exitDy=0;" parent="1" source="OF6cTdFt37tzbmLH_Fab-85" target="OF6cTdFt37tzbmLH_Fab-91" edge="1">
          <mxGeometry relative="1" as="geometry">
            <mxPoint x="1550" as="sourcePoint" />
            <mxPoint x="1490" y="30" as="targetPoint" />
          </mxGeometry>
        </mxCell>
        <mxCell id="OF6cTdFt37tzbmLH_Fab-91" value="요금" style="ellipse;whiteSpace=wrap;html=1;align=center;" parent="1" vertex="1">
          <mxGeometry x="2480" y="500" width="100" height="40" as="geometry" />
        </mxCell>
        <mxCell id="OF6cTdFt37tzbmLH_Fab-92" value="승무원 ID" style="ellipse;whiteSpace=wrap;html=1;align=center;fontStyle=4;" parent="1" vertex="1">
          <mxGeometry x="2800.003762322466" y="195.06721420381865" width="100" height="40" as="geometry" />
        </mxCell>
        <mxCell id="OF6cTdFt37tzbmLH_Fab-93" value="기장 ID" style="ellipse;whiteSpace=wrap;html=1;align=center;fontStyle=4;" parent="1" vertex="1">
          <mxGeometry x="3528.499780027779" y="229.9985246776211" width="100" height="40" as="geometry" />
        </mxCell>
        <mxCell id="OF6cTdFt37tzbmLH_Fab-94" value="항공기 ID" style="ellipse;whiteSpace=wrap;html=1;align=center;fontStyle=4;" parent="1" vertex="1">
          <mxGeometry x="3308" y="565" width="100" height="40" as="geometry" />
        </mxCell>
        <mxCell id="OF6cTdFt37tzbmLH_Fab-95" value="운항 편명" style="ellipse;whiteSpace=wrap;html=1;align=center;fontStyle=4;" parent="1" vertex="1">
          <mxGeometry x="3140" y="570" width="100" height="40" as="geometry" />
        </mxCell>
        <mxCell id="OF6cTdFt37tzbmLH_Fab-102" value="" style="endArrow=none;html=1;rounded=0;entryX=0.75;entryY=1;entryDx=0;entryDy=0;exitX=0.5;exitY=0;exitDx=0;exitDy=0;" parent="1" source="OF6cTdFt37tzbmLH_Fab-103" target="OF6cTdFt37tzbmLH_Fab-147" edge="1">
          <mxGeometry relative="1" as="geometry">
            <mxPoint x="2460" y="810" as="sourcePoint" />
            <mxPoint x="2550" y="710" as="targetPoint" />
          </mxGeometry>
        </mxCell>
        <mxCell id="OF6cTdFt37tzbmLH_Fab-103" value="예매날짜" style="ellipse;whiteSpace=wrap;html=1;align=center;" parent="1" vertex="1">
          <mxGeometry x="2447.5" y="205.07" width="100" height="40" as="geometry" />
        </mxCell>
        <mxCell id="OF6cTdFt37tzbmLH_Fab-104" value="" style="endArrow=none;html=1;rounded=0;entryX=1;entryY=1;entryDx=0;entryDy=0;exitX=0;exitY=0;exitDx=0;exitDy=0;" parent="1" source="OF6cTdFt37tzbmLH_Fab-105" target="OF6cTdFt37tzbmLH_Fab-147" edge="1">
          <mxGeometry relative="1" as="geometry">
            <mxPoint x="2350" y="810" as="sourcePoint" />
            <mxPoint x="2350" y="750" as="targetPoint" />
          </mxGeometry>
        </mxCell>
        <mxCell id="OF6cTdFt37tzbmLH_Fab-105" value="예매비용" style="ellipse;whiteSpace=wrap;html=1;align=center;" parent="1" vertex="1">
          <mxGeometry x="2520" y="150" width="100" height="40" as="geometry" />
        </mxCell>
        <mxCell id="OF6cTdFt37tzbmLH_Fab-108" value="" style="endArrow=none;html=1;rounded=0;entryX=0;entryY=0.5;entryDx=0;entryDy=0;exitX=1;exitY=0.5;exitDx=0;exitDy=0;" parent="1" source="OF6cTdFt37tzbmLH_Fab-110" target="OF6cTdFt37tzbmLH_Fab-85" edge="1">
          <mxGeometry relative="1" as="geometry">
            <mxPoint x="2430" y="320" as="sourcePoint" />
            <mxPoint x="2620" y="340" as="targetPoint" />
          </mxGeometry>
        </mxCell>
        <mxCell id="OF6cTdFt37tzbmLH_Fab-109" value="1" style="resizable=0;html=1;whiteSpace=wrap;align=right;verticalAlign=bottom;" parent="OF6cTdFt37tzbmLH_Fab-108" connectable="0" vertex="1">
          <mxGeometry x="1" relative="1" as="geometry" />
        </mxCell>
        <mxCell id="OF6cTdFt37tzbmLH_Fab-110" value="발행" style="shape=rhombus;perimeter=rhombusPerimeter;whiteSpace=wrap;html=1;align=center;" parent="1" vertex="1">
          <mxGeometry x="2120" y="420" width="120" height="60" as="geometry" />
        </mxCell>
        <mxCell id="OF6cTdFt37tzbmLH_Fab-111" value="" style="endArrow=none;html=1;rounded=0;exitX=0;exitY=0.5;exitDx=0;exitDy=0;" parent="1" source="OF6cTdFt37tzbmLH_Fab-110" target="OF6cTdFt37tzbmLH_Fab-113" edge="1">
          <mxGeometry relative="1" as="geometry">
            <mxPoint x="2430" y="290" as="sourcePoint" />
            <mxPoint x="2060" y="430" as="targetPoint" />
          </mxGeometry>
        </mxCell>
        <mxCell id="OF6cTdFt37tzbmLH_Fab-112" value="1" style="resizable=0;html=1;whiteSpace=wrap;align=right;verticalAlign=bottom;direction=south;" parent="OF6cTdFt37tzbmLH_Fab-111" connectable="0" vertex="1">
          <mxGeometry x="1" relative="1" as="geometry">
            <mxPoint y="20" as="offset" />
          </mxGeometry>
        </mxCell>
        <mxCell id="OF6cTdFt37tzbmLH_Fab-113" value="승객" style="whiteSpace=wrap;html=1;align=center;" parent="1" vertex="1">
          <mxGeometry x="1930" y="430" width="100" height="40" as="geometry" />
        </mxCell>
        <mxCell id="OF6cTdFt37tzbmLH_Fab-114" value="" style="endArrow=none;html=1;rounded=0;exitX=0;exitY=1;exitDx=0;exitDy=0;" parent="1" source="OF6cTdFt37tzbmLH_Fab-113" target="OF6cTdFt37tzbmLH_Fab-115" edge="1">
          <mxGeometry relative="1" as="geometry">
            <mxPoint x="2390" y="170" as="sourcePoint" />
            <mxPoint x="2329.712400502277" y="69.61904901459968" as="targetPoint" />
          </mxGeometry>
        </mxCell>
        <mxCell id="OF6cTdFt37tzbmLH_Fab-115" value="승객 번호" style="ellipse;whiteSpace=wrap;html=1;align=center;fontStyle=4;" parent="1" vertex="1">
          <mxGeometry x="1770.002400502277" y="499.9990490145997" width="100" height="40" as="geometry" />
        </mxCell>
        <mxCell id="OF6cTdFt37tzbmLH_Fab-116" value="" style="endArrow=none;html=1;rounded=0;exitX=0.25;exitY=1;exitDx=0;exitDy=0;" parent="1" source="OF6cTdFt37tzbmLH_Fab-113" target="OF6cTdFt37tzbmLH_Fab-117" edge="1">
          <mxGeometry relative="1" as="geometry">
            <mxPoint x="2360" y="100" as="sourcePoint" />
            <mxPoint x="2380" y="60" as="targetPoint" />
          </mxGeometry>
        </mxCell>
        <mxCell id="OF6cTdFt37tzbmLH_Fab-117" value="성명" style="ellipse;whiteSpace=wrap;html=1;align=center;" parent="1" vertex="1">
          <mxGeometry x="1797.5" y="550" width="100" height="40" as="geometry" />
        </mxCell>
        <mxCell id="OF6cTdFt37tzbmLH_Fab-118" value="" style="endArrow=none;html=1;rounded=0;exitX=0;exitY=0.5;exitDx=0;exitDy=0;" parent="1" source="OF6cTdFt37tzbmLH_Fab-117" target="OF6cTdFt37tzbmLH_Fab-119" edge="1">
          <mxGeometry relative="1" as="geometry">
            <mxPoint x="1940" y="360" as="sourcePoint" />
            <mxPoint x="1860" y="190" as="targetPoint" />
          </mxGeometry>
        </mxCell>
        <mxCell id="OF6cTdFt37tzbmLH_Fab-119" value="성" style="ellipse;whiteSpace=wrap;html=1;align=center;" parent="1" vertex="1">
          <mxGeometry x="1640" y="580" width="100" height="40" as="geometry" />
        </mxCell>
        <mxCell id="OF6cTdFt37tzbmLH_Fab-120" value="" style="endArrow=none;html=1;rounded=0;entryX=0;entryY=1;entryDx=0;entryDy=0;exitX=0.5;exitY=0;exitDx=0;exitDy=0;" parent="1" source="OF6cTdFt37tzbmLH_Fab-121" target="OF6cTdFt37tzbmLH_Fab-117" edge="1">
          <mxGeometry relative="1" as="geometry">
            <mxPoint x="1970" y="200" as="sourcePoint" />
            <mxPoint x="1942" y="300" as="targetPoint" />
          </mxGeometry>
        </mxCell>
        <mxCell id="OF6cTdFt37tzbmLH_Fab-121" value="이름" style="ellipse;whiteSpace=wrap;html=1;align=center;" parent="1" vertex="1">
          <mxGeometry x="1710" y="630" width="100" height="40" as="geometry" />
        </mxCell>
        <mxCell id="OF6cTdFt37tzbmLH_Fab-122" value="" style="endArrow=none;html=1;rounded=0;exitX=0.654;exitY=1.029;exitDx=0;exitDy=0;exitPerimeter=0;" parent="1" source="OF6cTdFt37tzbmLH_Fab-113" target="OF6cTdFt37tzbmLH_Fab-123" edge="1">
          <mxGeometry relative="1" as="geometry">
            <mxPoint x="2090" y="510" as="sourcePoint" />
            <mxPoint x="2460" y="60" as="targetPoint" />
          </mxGeometry>
        </mxCell>
        <mxCell id="OF6cTdFt37tzbmLH_Fab-123" value="생년월일" style="ellipse;whiteSpace=wrap;html=1;align=center;" parent="1" vertex="1">
          <mxGeometry x="2130" y="565" width="100" height="40" as="geometry" />
        </mxCell>
        <mxCell id="OF6cTdFt37tzbmLH_Fab-124" value="" style="endArrow=none;html=1;rounded=0;exitX=0.75;exitY=1;exitDx=0;exitDy=0;" parent="1" source="OF6cTdFt37tzbmLH_Fab-113" target="OF6cTdFt37tzbmLH_Fab-125" edge="1">
          <mxGeometry relative="1" as="geometry">
            <mxPoint x="2005" y="430" as="sourcePoint" />
            <mxPoint x="2580" y="20" as="targetPoint" />
          </mxGeometry>
        </mxCell>
        <mxCell id="OF6cTdFt37tzbmLH_Fab-125" value="전화번호" style="ellipse;whiteSpace=wrap;html=1;align=center;" parent="1" vertex="1">
          <mxGeometry x="2117.5" y="500" width="100" height="40" as="geometry" />
        </mxCell>
        <mxCell id="OF6cTdFt37tzbmLH_Fab-128" value="" style="endArrow=none;html=1;rounded=0;exitX=0;exitY=0;exitDx=0;exitDy=0;" parent="1" source="OF6cTdFt37tzbmLH_Fab-113" target="OF6cTdFt37tzbmLH_Fab-129" edge="1">
          <mxGeometry relative="1" as="geometry">
            <mxPoint x="2440" y="180" as="sourcePoint" />
            <mxPoint x="2580" y="100" as="targetPoint" />
          </mxGeometry>
        </mxCell>
        <mxCell id="OF6cTdFt37tzbmLH_Fab-129" value="여권번호" style="ellipse;whiteSpace=wrap;html=1;align=center;" parent="1" vertex="1">
          <mxGeometry x="1810" y="350" width="100" height="40" as="geometry" />
        </mxCell>
        <mxCell id="OF6cTdFt37tzbmLH_Fab-132" value="" style="endArrow=none;html=1;rounded=0;entryX=0;entryY=0.5;entryDx=0;entryDy=0;exitX=1;exitY=0.5;exitDx=0;exitDy=0;" parent="1" source="OF6cTdFt37tzbmLH_Fab-134" target="OF6cTdFt37tzbmLH_Fab-113" edge="1">
          <mxGeometry relative="1" as="geometry">
            <mxPoint x="2170" y="140" as="sourcePoint" />
            <mxPoint x="2100" y="150" as="targetPoint" />
          </mxGeometry>
        </mxCell>
        <mxCell id="OF6cTdFt37tzbmLH_Fab-133" value="1" style="resizable=0;html=1;whiteSpace=wrap;align=right;verticalAlign=bottom;" parent="OF6cTdFt37tzbmLH_Fab-132" connectable="0" vertex="1">
          <mxGeometry x="1" relative="1" as="geometry" />
        </mxCell>
        <mxCell id="OF6cTdFt37tzbmLH_Fab-134" value="소유" style="shape=rhombus;perimeter=rhombusPerimeter;whiteSpace=wrap;html=1;align=center;" parent="1" vertex="1">
          <mxGeometry x="1690" y="420" width="120" height="60" as="geometry" />
        </mxCell>
        <mxCell id="OF6cTdFt37tzbmLH_Fab-135" value="수하물" style="whiteSpace=wrap;html=1;align=center;" parent="1" vertex="1">
          <mxGeometry x="1470" y="430" width="100" height="40" as="geometry" />
        </mxCell>
        <mxCell id="OF6cTdFt37tzbmLH_Fab-136" value="" style="endArrow=none;html=1;rounded=0;entryX=1;entryY=0.5;entryDx=0;entryDy=0;exitX=0;exitY=0.5;exitDx=0;exitDy=0;" parent="1" source="OF6cTdFt37tzbmLH_Fab-134" target="OF6cTdFt37tzbmLH_Fab-135" edge="1">
          <mxGeometry relative="1" as="geometry">
            <mxPoint x="1670" y="480" as="sourcePoint" />
            <mxPoint x="1830" y="480" as="targetPoint" />
          </mxGeometry>
        </mxCell>
        <mxCell id="OF6cTdFt37tzbmLH_Fab-137" value="N" style="resizable=0;html=1;whiteSpace=wrap;align=right;verticalAlign=bottom;" parent="OF6cTdFt37tzbmLH_Fab-136" connectable="0" vertex="1">
          <mxGeometry x="1" relative="1" as="geometry" />
        </mxCell>
        <mxCell id="OF6cTdFt37tzbmLH_Fab-138" value="" style="endArrow=none;html=1;rounded=0;exitX=1;exitY=0;exitDx=0;exitDy=0;entryX=0.252;entryY=0.946;entryDx=0;entryDy=0;entryPerimeter=0;" parent="1" source="OF6cTdFt37tzbmLH_Fab-135" target="OF6cTdFt37tzbmLH_Fab-139" edge="1">
          <mxGeometry relative="1" as="geometry">
            <mxPoint x="1580" y="480" as="sourcePoint" />
            <mxPoint x="1630" y="390" as="targetPoint" />
          </mxGeometry>
        </mxCell>
        <mxCell id="OF6cTdFt37tzbmLH_Fab-139" value="수량" style="ellipse;whiteSpace=wrap;html=1;align=center;" parent="1" vertex="1">
          <mxGeometry x="1580" y="370.0000000000002" width="100" height="40" as="geometry" />
        </mxCell>
        <mxCell id="OF6cTdFt37tzbmLH_Fab-140" value="" style="endArrow=none;html=1;rounded=0;exitX=0.5;exitY=0;exitDx=0;exitDy=0;entryX=0.5;entryY=1;entryDx=0;entryDy=0;" parent="1" source="OF6cTdFt37tzbmLH_Fab-135" target="Z0QFiiBBiSWytVI0mT_u-11" edge="1">
          <mxGeometry relative="1" as="geometry">
            <mxPoint x="1580" y="440" as="sourcePoint" />
            <mxPoint x="1520" y="400" as="targetPoint" />
          </mxGeometry>
        </mxCell>
        <mxCell id="OF6cTdFt37tzbmLH_Fab-142" value="" style="endArrow=none;html=1;rounded=0;exitX=0;exitY=0;exitDx=0;exitDy=0;entryX=1;entryY=1;entryDx=0;entryDy=0;" parent="1" source="OF6cTdFt37tzbmLH_Fab-135" target="OF6cTdFt37tzbmLH_Fab-143" edge="1">
          <mxGeometry relative="1" as="geometry">
            <mxPoint x="1590" y="450" as="sourcePoint" />
            <mxPoint x="1400" y="400" as="targetPoint" />
          </mxGeometry>
        </mxCell>
        <mxCell id="OF6cTdFt37tzbmLH_Fab-143" value="체중" style="ellipse;whiteSpace=wrap;html=1;align=center;" parent="1" vertex="1">
          <mxGeometry x="1350" y="380.0000000000002" width="100" height="40" as="geometry" />
        </mxCell>
        <mxCell id="OF6cTdFt37tzbmLH_Fab-144" value="예약" style="shape=rhombus;perimeter=rhombusPerimeter;whiteSpace=wrap;html=1;align=center;" parent="1" vertex="1">
          <mxGeometry x="2130" y="250" width="120" height="60" as="geometry" />
        </mxCell>
        <mxCell id="OF6cTdFt37tzbmLH_Fab-145" value="" style="endArrow=none;html=1;rounded=0;exitX=1;exitY=0;exitDx=0;exitDy=0;entryX=0;entryY=1;entryDx=0;entryDy=0;" parent="1" source="OF6cTdFt37tzbmLH_Fab-144" target="OF6cTdFt37tzbmLH_Fab-147" edge="1">
          <mxGeometry relative="1" as="geometry">
            <mxPoint x="2320" y="138.45" as="sourcePoint" />
            <mxPoint x="2320" y="140" as="targetPoint" />
          </mxGeometry>
        </mxCell>
        <mxCell id="OF6cTdFt37tzbmLH_Fab-146" value="N" style="resizable=0;html=1;whiteSpace=wrap;align=right;verticalAlign=bottom;" parent="OF6cTdFt37tzbmLH_Fab-145" connectable="0" vertex="1">
          <mxGeometry x="1" relative="1" as="geometry" />
        </mxCell>
        <mxCell id="OF6cTdFt37tzbmLH_Fab-147" value="예매" style="whiteSpace=wrap;html=1;align=center;" parent="1" vertex="1">
          <mxGeometry x="2370" y="108.45000000000023" width="100" height="40" as="geometry" />
        </mxCell>
        <mxCell id="OF6cTdFt37tzbmLH_Fab-148" value="" style="endArrow=none;html=1;rounded=0;exitX=0;exitY=0.5;exitDx=0;exitDy=0;" parent="1" source="OF6cTdFt37tzbmLH_Fab-147" target="OF6cTdFt37tzbmLH_Fab-149" edge="1">
          <mxGeometry relative="1" as="geometry">
            <mxPoint x="2450" y="168.45" as="sourcePoint" />
            <mxPoint x="2320" y="88.45" as="targetPoint" />
          </mxGeometry>
        </mxCell>
        <mxCell id="OF6cTdFt37tzbmLH_Fab-149" value="도착공항" style="ellipse;whiteSpace=wrap;html=1;align=center;" parent="1" vertex="1">
          <mxGeometry x="2210" y="148.45000000000022" width="100" height="40" as="geometry" />
        </mxCell>
        <mxCell id="OF6cTdFt37tzbmLH_Fab-150" value="" style="endArrow=none;html=1;rounded=0;entryX=0;entryY=0.25;entryDx=0;entryDy=0;exitX=1.026;exitY=0.626;exitDx=0;exitDy=0;exitPerimeter=0;" parent="1" source="OF6cTdFt37tzbmLH_Fab-151" target="OF6cTdFt37tzbmLH_Fab-147" edge="1">
          <mxGeometry relative="1" as="geometry">
            <mxPoint x="2360" y="28.45" as="sourcePoint" />
            <mxPoint x="2358" y="115.45" as="targetPoint" />
          </mxGeometry>
        </mxCell>
        <mxCell id="OF6cTdFt37tzbmLH_Fab-151" value="출발공항" style="ellipse;whiteSpace=wrap;html=1;align=center;" parent="1" vertex="1">
          <mxGeometry x="2200" y="99.62" width="100" height="40" as="geometry" />
        </mxCell>
        <mxCell id="OF6cTdFt37tzbmLH_Fab-152" value="" style="endArrow=none;html=1;rounded=0;entryX=0;entryY=0;entryDx=0;entryDy=0;exitX=0.5;exitY=1;exitDx=0;exitDy=0;" parent="1" source="OF6cTdFt37tzbmLH_Fab-153" target="OF6cTdFt37tzbmLH_Fab-147" edge="1">
          <mxGeometry relative="1" as="geometry">
            <mxPoint x="2380" y="-1.5500000000000007" as="sourcePoint" />
            <mxPoint x="2397" y="118.45" as="targetPoint" />
          </mxGeometry>
        </mxCell>
        <mxCell id="OF6cTdFt37tzbmLH_Fab-153" value="출발시간" style="ellipse;whiteSpace=wrap;html=1;align=center;" parent="1" vertex="1">
          <mxGeometry x="2210" y="43.45" width="100" height="40" as="geometry" />
        </mxCell>
        <mxCell id="OF6cTdFt37tzbmLH_Fab-154" value="" style="endArrow=none;html=1;rounded=0;exitX=0.25;exitY=0;exitDx=0;exitDy=0;" parent="1" source="OF6cTdFt37tzbmLH_Fab-147" target="OF6cTdFt37tzbmLH_Fab-155" edge="1">
          <mxGeometry relative="1" as="geometry">
            <mxPoint x="2390" y="100" as="sourcePoint" />
            <mxPoint x="2450" y="18.45" as="targetPoint" />
          </mxGeometry>
        </mxCell>
        <mxCell id="OF6cTdFt37tzbmLH_Fab-155" value="도착시간" style="ellipse;whiteSpace=wrap;html=1;align=center;" parent="1" vertex="1">
          <mxGeometry x="2300" y="3.4500000000002267" width="100" height="40" as="geometry" />
        </mxCell>
        <mxCell id="OF6cTdFt37tzbmLH_Fab-156" value="" style="endArrow=none;html=1;rounded=0;exitX=0.5;exitY=0;exitDx=0;exitDy=0;" parent="1" source="OF6cTdFt37tzbmLH_Fab-147" target="OF6cTdFt37tzbmLH_Fab-157" edge="1">
          <mxGeometry relative="1" as="geometry">
            <mxPoint x="2455" y="118.45" as="sourcePoint" />
            <mxPoint x="2530" y="38.45" as="targetPoint" />
          </mxGeometry>
        </mxCell>
        <mxCell id="OF6cTdFt37tzbmLH_Fab-157" value="예매번호" style="ellipse;whiteSpace=wrap;html=1;align=center;fontStyle=4;" parent="1" vertex="1">
          <mxGeometry x="2381" y="-36.54999999999977" width="100" height="40" as="geometry" />
        </mxCell>
        <mxCell id="OF6cTdFt37tzbmLH_Fab-158" value="" style="endArrow=none;html=1;rounded=0;exitX=0.75;exitY=0;exitDx=0;exitDy=0;" parent="1" source="OF6cTdFt37tzbmLH_Fab-147" target="OF6cTdFt37tzbmLH_Fab-159" edge="1">
          <mxGeometry relative="1" as="geometry">
            <mxPoint x="2470" y="118.45" as="sourcePoint" />
            <mxPoint x="2540" y="88.45" as="targetPoint" />
          </mxGeometry>
        </mxCell>
        <mxCell id="OF6cTdFt37tzbmLH_Fab-159" value="등급" style="ellipse;whiteSpace=wrap;html=1;align=center;" parent="1" vertex="1">
          <mxGeometry x="2440" y="10.000000000000234" width="100" height="40" as="geometry" />
        </mxCell>
        <mxCell id="OF6cTdFt37tzbmLH_Fab-160" value="" style="endArrow=none;html=1;rounded=0;entryX=0.5;entryY=1;entryDx=0;entryDy=0;exitX=0.5;exitY=0;exitDx=0;exitDy=0;" parent="1" source="OF6cTdFt37tzbmLH_Fab-162" target="OF6cTdFt37tzbmLH_Fab-147" edge="1">
          <mxGeometry relative="1" as="geometry">
            <mxPoint x="2750" y="250" as="sourcePoint" />
            <mxPoint x="2960" y="270" as="targetPoint" />
          </mxGeometry>
        </mxCell>
        <mxCell id="OF6cTdFt37tzbmLH_Fab-161" value="1" style="resizable=0;html=1;whiteSpace=wrap;align=right;verticalAlign=bottom;" parent="OF6cTdFt37tzbmLH_Fab-160" connectable="0" vertex="1">
          <mxGeometry x="1" relative="1" as="geometry" />
        </mxCell>
        <mxCell id="OF6cTdFt37tzbmLH_Fab-162" value="표시" style="shape=rhombus;perimeter=rhombusPerimeter;whiteSpace=wrap;html=1;align=center;" parent="1" vertex="1">
          <mxGeometry x="2360" y="270" width="120" height="60" as="geometry" />
        </mxCell>
        <mxCell id="OF6cTdFt37tzbmLH_Fab-165" value="" style="endArrow=none;html=1;rounded=0;entryX=0.5;entryY=0;entryDx=0;entryDy=0;exitX=0.5;exitY=1;exitDx=0;exitDy=0;" parent="1" source="OF6cTdFt37tzbmLH_Fab-162" target="OF6cTdFt37tzbmLH_Fab-85" edge="1">
          <mxGeometry relative="1" as="geometry">
            <mxPoint x="2530" y="340" as="sourcePoint" />
            <mxPoint x="2690" y="340" as="targetPoint" />
          </mxGeometry>
        </mxCell>
        <mxCell id="OF6cTdFt37tzbmLH_Fab-166" value="1" style="resizable=0;html=1;whiteSpace=wrap;align=right;verticalAlign=bottom;" parent="OF6cTdFt37tzbmLH_Fab-165" connectable="0" vertex="1">
          <mxGeometry x="1" relative="1" as="geometry" />
        </mxCell>
        <mxCell id="OF6cTdFt37tzbmLH_Fab-168" value="" style="endArrow=none;html=1;rounded=0;entryX=0.75;entryY=0;entryDx=0;entryDy=0;exitX=0;exitY=1;exitDx=0;exitDy=0;" parent="1" source="OF6cTdFt37tzbmLH_Fab-144" target="OF6cTdFt37tzbmLH_Fab-113" edge="1">
          <mxGeometry relative="1" as="geometry">
            <mxPoint x="2140" y="200" as="sourcePoint" />
            <mxPoint x="1900" y="200" as="targetPoint" />
          </mxGeometry>
        </mxCell>
        <mxCell id="OF6cTdFt37tzbmLH_Fab-169" value="1" style="resizable=0;html=1;whiteSpace=wrap;align=right;verticalAlign=bottom;" parent="OF6cTdFt37tzbmLH_Fab-168" connectable="0" vertex="1">
          <mxGeometry x="1" relative="1" as="geometry" />
        </mxCell>
        <mxCell id="OF6cTdFt37tzbmLH_Fab-170" value="항공사" style="whiteSpace=wrap;html=1;align=center;" parent="1" vertex="1">
          <mxGeometry x="3015" y="-210" width="100" height="40" as="geometry" />
        </mxCell>
        <mxCell id="OaOm-PFCFOyFSG8GFty_-9" value="공항" style="whiteSpace=wrap;html=1;align=center;" parent="1" vertex="1">
          <mxGeometry x="2532.5" y="1112.29" width="100" height="40" as="geometry" />
        </mxCell>
        <mxCell id="_fmQQ23UDMU28dtSd_eu-3" value="관리" style="shape=rhombus;perimeter=rhombusPerimeter;whiteSpace=wrap;html=1;align=center;" parent="1" vertex="1">
          <mxGeometry x="2227.5" y="1102.29" width="120" height="60" as="geometry" />
        </mxCell>
        <mxCell id="_fmQQ23UDMU28dtSd_eu-5" value="편의시설" style="whiteSpace=wrap;html=1;align=center;" parent="1" vertex="1">
          <mxGeometry x="1910" y="1113.29" width="100" height="40" as="geometry" />
        </mxCell>
        <mxCell id="_fmQQ23UDMU28dtSd_eu-10" value="" style="endArrow=none;html=1;rounded=0;entryX=0;entryY=0.5;entryDx=0;entryDy=0;exitX=1;exitY=0.5;exitDx=0;exitDy=0;" parent="1" source="_fmQQ23UDMU28dtSd_eu-3" target="OaOm-PFCFOyFSG8GFty_-9" edge="1">
          <mxGeometry relative="1" as="geometry">
            <mxPoint x="2267.5" y="993.29" as="sourcePoint" />
            <mxPoint x="2427.5" y="993.29" as="targetPoint" />
          </mxGeometry>
        </mxCell>
        <mxCell id="_fmQQ23UDMU28dtSd_eu-11" value="1" style="resizable=0;html=1;whiteSpace=wrap;align=right;verticalAlign=bottom;" parent="_fmQQ23UDMU28dtSd_eu-10" connectable="0" vertex="1">
          <mxGeometry x="1" relative="1" as="geometry" />
        </mxCell>
        <mxCell id="_fmQQ23UDMU28dtSd_eu-14" value="" style="endArrow=none;html=1;rounded=0;entryX=1;entryY=0.5;entryDx=0;entryDy=0;exitX=0;exitY=0.5;exitDx=0;exitDy=0;" parent="1" source="_fmQQ23UDMU28dtSd_eu-3" target="_fmQQ23UDMU28dtSd_eu-5" edge="1">
          <mxGeometry relative="1" as="geometry">
            <mxPoint x="2267.5" y="993.29" as="sourcePoint" />
            <mxPoint x="2427.5" y="993.29" as="targetPoint" />
          </mxGeometry>
        </mxCell>
        <mxCell id="_fmQQ23UDMU28dtSd_eu-15" value="N" style="resizable=0;html=1;whiteSpace=wrap;align=right;verticalAlign=bottom;" parent="_fmQQ23UDMU28dtSd_eu-14" connectable="0" vertex="1">
          <mxGeometry x="1" relative="1" as="geometry" />
        </mxCell>
        <mxCell id="_fmQQ23UDMU28dtSd_eu-31" value="" style="endArrow=none;html=1;rounded=0;entryX=0;entryY=0.5;entryDx=0;entryDy=0;exitX=1;exitY=0.5;exitDx=0;exitDy=0;" parent="1" source="OF6cTdFt37tzbmLH_Fab-49" target="OF6cTdFt37tzbmLH_Fab-14" edge="1">
          <mxGeometry relative="1" as="geometry">
            <mxPoint x="3260" y="470" as="sourcePoint" />
            <mxPoint x="3420" y="470" as="targetPoint" />
          </mxGeometry>
        </mxCell>
        <mxCell id="_fmQQ23UDMU28dtSd_eu-32" value="1" style="resizable=0;html=1;whiteSpace=wrap;align=right;verticalAlign=bottom;" parent="_fmQQ23UDMU28dtSd_eu-31" connectable="0" vertex="1">
          <mxGeometry x="1" relative="1" as="geometry" />
        </mxCell>
        <mxCell id="_fmQQ23UDMU28dtSd_eu-42" value="" style="endArrow=none;html=1;rounded=0;exitX=0.5;exitY=1;exitDx=0;exitDy=0;" parent="1" source="OaOm-PFCFOyFSG8GFty_-9" target="_fmQQ23UDMU28dtSd_eu-43" edge="1">
          <mxGeometry relative="1" as="geometry">
            <mxPoint x="2580" y="1153.29" as="sourcePoint" />
            <mxPoint x="2620" y="1183.29" as="targetPoint" />
          </mxGeometry>
        </mxCell>
        <mxCell id="_fmQQ23UDMU28dtSd_eu-43" value="공항명" style="ellipse;whiteSpace=wrap;html=1;align=center;" parent="1" vertex="1">
          <mxGeometry x="2540" y="1233.29" width="100" height="40" as="geometry" />
        </mxCell>
        <mxCell id="_fmQQ23UDMU28dtSd_eu-44" value="" style="endArrow=none;html=1;rounded=0;exitX=1;exitY=1;exitDx=0;exitDy=0;" parent="1" source="OaOm-PFCFOyFSG8GFty_-9" target="_fmQQ23UDMU28dtSd_eu-45" edge="1">
          <mxGeometry relative="1" as="geometry">
            <mxPoint x="2582.5" y="880" as="sourcePoint" />
            <mxPoint x="2612.5" y="850" as="targetPoint" />
          </mxGeometry>
        </mxCell>
        <mxCell id="_fmQQ23UDMU28dtSd_eu-45" value="공항코드" style="ellipse;whiteSpace=wrap;html=1;align=center;fontStyle=4;" parent="1" vertex="1">
          <mxGeometry x="2660" y="1203.29" width="100" height="40" as="geometry" />
        </mxCell>
        <mxCell id="_fmQQ23UDMU28dtSd_eu-46" value="" style="endArrow=none;html=1;rounded=0;exitX=0;exitY=1;exitDx=0;exitDy=0;" parent="1" source="OaOm-PFCFOyFSG8GFty_-9" target="_fmQQ23UDMU28dtSd_eu-47" edge="1">
          <mxGeometry relative="1" as="geometry">
            <mxPoint x="2497.5" y="870" as="sourcePoint" />
            <mxPoint x="2482.5" y="950" as="targetPoint" />
          </mxGeometry>
        </mxCell>
        <mxCell id="_fmQQ23UDMU28dtSd_eu-47" value="국가명" style="ellipse;whiteSpace=wrap;html=1;align=center;" parent="1" vertex="1">
          <mxGeometry x="2420" y="1203.29" width="100" height="40" as="geometry" />
        </mxCell>
        <mxCell id="_fmQQ23UDMU28dtSd_eu-48" value="" style="endArrow=none;html=1;rounded=0;exitX=0.5;exitY=1;exitDx=0;exitDy=0;" parent="1" source="_fmQQ23UDMU28dtSd_eu-5" target="_fmQQ23UDMU28dtSd_eu-50" edge="1">
          <mxGeometry relative="1" as="geometry">
            <mxPoint x="1940" y="1233.29" as="sourcePoint" />
            <mxPoint x="1950" y="1263.29" as="targetPoint" />
          </mxGeometry>
        </mxCell>
        <mxCell id="_fmQQ23UDMU28dtSd_eu-50" value="편의시설 번호" style="ellipse;whiteSpace=wrap;html=1;align=center;fontStyle=4;" parent="1" vertex="1">
          <mxGeometry x="1890" y="1233.29" width="100" height="40" as="geometry" />
        </mxCell>
        <mxCell id="_fmQQ23UDMU28dtSd_eu-51" value="" style="endArrow=none;html=1;rounded=0;exitX=0;exitY=1;exitDx=0;exitDy=0;" parent="1" source="_fmQQ23UDMU28dtSd_eu-5" target="_fmQQ23UDMU28dtSd_eu-52" edge="1">
          <mxGeometry relative="1" as="geometry">
            <mxPoint x="1860" y="1153.29" as="sourcePoint" />
            <mxPoint x="1830" y="1223.29" as="targetPoint" />
          </mxGeometry>
        </mxCell>
        <mxCell id="_fmQQ23UDMU28dtSd_eu-52" value="운영시간" style="ellipse;whiteSpace=wrap;html=1;align=center;" parent="1" vertex="1">
          <mxGeometry x="1770" y="1193.29" width="100" height="40" as="geometry" />
        </mxCell>
        <mxCell id="_fmQQ23UDMU28dtSd_eu-53" value="" style="endArrow=none;html=1;rounded=0;exitX=0;exitY=0.5;exitDx=0;exitDy=0;" parent="1" source="_fmQQ23UDMU28dtSd_eu-5" target="_fmQQ23UDMU28dtSd_eu-54" edge="1">
          <mxGeometry relative="1" as="geometry">
            <mxPoint x="1960" y="1173.29" as="sourcePoint" />
            <mxPoint x="1800" y="1133.29" as="targetPoint" />
          </mxGeometry>
        </mxCell>
        <mxCell id="_fmQQ23UDMU28dtSd_eu-54" value="위치" style="ellipse;whiteSpace=wrap;html=1;align=center;" parent="1" vertex="1">
          <mxGeometry x="1730" y="1112.29" width="100" height="40" as="geometry" />
        </mxCell>
        <mxCell id="_fmQQ23UDMU28dtSd_eu-55" value="" style="endArrow=none;html=1;rounded=0;exitX=0;exitY=0;exitDx=0;exitDy=0;entryX=1;entryY=0.5;entryDx=0;entryDy=0;" parent="1" source="_fmQQ23UDMU28dtSd_eu-5" target="_fmQQ23UDMU28dtSd_eu-56" edge="1">
          <mxGeometry relative="1" as="geometry">
            <mxPoint x="1879.9999999999995" y="1033.29" as="sourcePoint" />
            <mxPoint x="1800" y="1063.29" as="targetPoint" />
          </mxGeometry>
        </mxCell>
        <mxCell id="_fmQQ23UDMU28dtSd_eu-56" value="전화번호" style="ellipse;whiteSpace=wrap;html=1;align=center;" parent="1" vertex="1">
          <mxGeometry x="1730" y="1042.29" width="100" height="40" as="geometry" />
        </mxCell>
        <mxCell id="_fmQQ23UDMU28dtSd_eu-68" value="" style="endArrow=none;html=1;rounded=0;entryX=0.5;entryY=0;entryDx=0;entryDy=0;exitX=0.5;exitY=1;exitDx=0;exitDy=0;" parent="1" source="_fmQQ23UDMU28dtSd_eu-70" target="OF6cTdFt37tzbmLH_Fab-63" edge="1">
          <mxGeometry relative="1" as="geometry">
            <mxPoint x="2975" as="sourcePoint" />
            <mxPoint x="3035" y="170" as="targetPoint" />
          </mxGeometry>
        </mxCell>
        <mxCell id="_fmQQ23UDMU28dtSd_eu-69" value="N" style="resizable=0;html=1;whiteSpace=wrap;align=right;verticalAlign=bottom;" parent="_fmQQ23UDMU28dtSd_eu-68" connectable="0" vertex="1">
          <mxGeometry x="1" relative="1" as="geometry" />
        </mxCell>
        <mxCell id="_fmQQ23UDMU28dtSd_eu-70" value="관리" style="shape=rhombus;perimeter=rhombusPerimeter;whiteSpace=wrap;html=1;align=center;" parent="1" vertex="1">
          <mxGeometry x="2920" y="-20" width="120" height="60" as="geometry" />
        </mxCell>
        <mxCell id="_fmQQ23UDMU28dtSd_eu-72" value="" style="endArrow=none;html=1;rounded=0;entryX=0.5;entryY=1;entryDx=0;entryDy=0;exitX=0.5;exitY=0;exitDx=0;exitDy=0;" parent="1" source="OF6cTdFt37tzbmLH_Fab-56" target="OF6cTdFt37tzbmLH_Fab-63" edge="1">
          <mxGeometry relative="1" as="geometry">
            <mxPoint x="2780" y="240" as="sourcePoint" />
            <mxPoint x="2940" y="240" as="targetPoint" />
          </mxGeometry>
        </mxCell>
        <mxCell id="_fmQQ23UDMU28dtSd_eu-73" value="N" style="resizable=0;html=1;whiteSpace=wrap;align=right;verticalAlign=bottom;" parent="_fmQQ23UDMU28dtSd_eu-72" connectable="0" vertex="1">
          <mxGeometry x="1" relative="1" as="geometry" />
        </mxCell>
        <mxCell id="_fmQQ23UDMU28dtSd_eu-74" value="" style="endArrow=none;html=1;rounded=0;exitX=0.5;exitY=1;exitDx=0;exitDy=0;" parent="1" source="_fmQQ23UDMU28dtSd_eu-76" edge="1">
          <mxGeometry relative="1" as="geometry">
            <mxPoint x="1950" y="260" as="sourcePoint" />
            <mxPoint x="1960" y="430" as="targetPoint" />
          </mxGeometry>
        </mxCell>
        <mxCell id="_fmQQ23UDMU28dtSd_eu-76" value="이메일 주소" style="ellipse;whiteSpace=wrap;html=1;align=center;" parent="1" vertex="1">
          <mxGeometry x="1890" y="250" width="100" height="40" as="geometry" />
        </mxCell>
        <mxCell id="_fmQQ23UDMU28dtSd_eu-81" value="" style="endArrow=none;html=1;rounded=0;entryX=1;entryY=0;entryDx=0;entryDy=0;exitX=0.5;exitY=1;exitDx=0;exitDy=0;" parent="1" source="_fmQQ23UDMU28dtSd_eu-88" target="OF6cTdFt37tzbmLH_Fab-85" edge="1">
          <mxGeometry relative="1" as="geometry">
            <mxPoint x="2790" y="-30" as="sourcePoint" />
            <mxPoint x="3020" y="250" as="targetPoint" />
          </mxGeometry>
        </mxCell>
        <mxCell id="_fmQQ23UDMU28dtSd_eu-82" value="N" style="resizable=0;html=1;whiteSpace=wrap;align=right;verticalAlign=bottom;" parent="_fmQQ23UDMU28dtSd_eu-81" connectable="0" vertex="1">
          <mxGeometry x="1" relative="1" as="geometry" />
        </mxCell>
        <mxCell id="_fmQQ23UDMU28dtSd_eu-83" value="" style="endArrow=none;html=1;rounded=0;entryX=1;entryY=0.5;entryDx=0;entryDy=0;exitX=0.5;exitY=1;exitDx=0;exitDy=0;" parent="1" source="_fmQQ23UDMU28dtSd_eu-85" target="OF6cTdFt37tzbmLH_Fab-147" edge="1">
          <mxGeometry relative="1" as="geometry">
            <mxPoint x="2730" y="-80" as="sourcePoint" />
            <mxPoint x="3020" y="250" as="targetPoint" />
          </mxGeometry>
        </mxCell>
        <mxCell id="_fmQQ23UDMU28dtSd_eu-84" value="N" style="resizable=0;html=1;whiteSpace=wrap;align=right;verticalAlign=bottom;" parent="_fmQQ23UDMU28dtSd_eu-83" connectable="0" vertex="1">
          <mxGeometry x="1" relative="1" as="geometry" />
        </mxCell>
        <mxCell id="_fmQQ23UDMU28dtSd_eu-85" value="관리" style="shape=rhombus;perimeter=rhombusPerimeter;whiteSpace=wrap;html=1;align=center;" parent="1" vertex="1">
          <mxGeometry x="2630" y="-160" width="120" height="60" as="geometry" />
        </mxCell>
        <mxCell id="_fmQQ23UDMU28dtSd_eu-86" value="" style="endArrow=none;html=1;rounded=0;exitX=0.5;exitY=0;exitDx=0;exitDy=0;entryX=0;entryY=0;entryDx=0;entryDy=0;" parent="1" source="_fmQQ23UDMU28dtSd_eu-85" target="OF6cTdFt37tzbmLH_Fab-170" edge="1">
          <mxGeometry relative="1" as="geometry">
            <mxPoint x="2990" y="-150" as="sourcePoint" />
            <mxPoint x="3150" y="-150" as="targetPoint" />
          </mxGeometry>
        </mxCell>
        <mxCell id="_fmQQ23UDMU28dtSd_eu-87" value="1" style="resizable=0;html=1;whiteSpace=wrap;align=right;verticalAlign=bottom;" parent="_fmQQ23UDMU28dtSd_eu-86" connectable="0" vertex="1">
          <mxGeometry x="1" relative="1" as="geometry" />
        </mxCell>
        <mxCell id="_fmQQ23UDMU28dtSd_eu-88" value="발급" style="shape=rhombus;perimeter=rhombusPerimeter;whiteSpace=wrap;html=1;align=center;" parent="1" vertex="1">
          <mxGeometry x="2760" y="-90" width="120" height="60" as="geometry" />
        </mxCell>
        <mxCell id="_fmQQ23UDMU28dtSd_eu-91" value="" style="endArrow=none;html=1;rounded=0;exitX=0.5;exitY=0;exitDx=0;exitDy=0;entryX=0;entryY=0.75;entryDx=0;entryDy=0;" parent="1" source="_fmQQ23UDMU28dtSd_eu-88" target="OF6cTdFt37tzbmLH_Fab-170" edge="1">
          <mxGeometry relative="1" as="geometry">
            <mxPoint x="2930" y="-150" as="sourcePoint" />
            <mxPoint x="3090" y="-150" as="targetPoint" />
          </mxGeometry>
        </mxCell>
        <mxCell id="_fmQQ23UDMU28dtSd_eu-92" value="1" style="resizable=0;html=1;whiteSpace=wrap;align=right;verticalAlign=bottom;" parent="_fmQQ23UDMU28dtSd_eu-91" connectable="0" vertex="1">
          <mxGeometry x="1" relative="1" as="geometry" />
        </mxCell>
        <mxCell id="_fmQQ23UDMU28dtSd_eu-93" value="" style="endArrow=none;html=1;rounded=0;exitX=0.5;exitY=0;exitDx=0;exitDy=0;entryX=0.25;entryY=1;entryDx=0;entryDy=0;" parent="1" source="_fmQQ23UDMU28dtSd_eu-70" target="OF6cTdFt37tzbmLH_Fab-170" edge="1">
          <mxGeometry relative="1" as="geometry">
            <mxPoint x="2830" y="-80" as="sourcePoint" />
            <mxPoint x="3090" y="-400" as="targetPoint" />
          </mxGeometry>
        </mxCell>
        <mxCell id="_fmQQ23UDMU28dtSd_eu-94" value="1" style="resizable=0;html=1;whiteSpace=wrap;align=right;verticalAlign=bottom;" parent="_fmQQ23UDMU28dtSd_eu-93" connectable="0" vertex="1">
          <mxGeometry x="1" relative="1" as="geometry" />
        </mxCell>
        <mxCell id="_fmQQ23UDMU28dtSd_eu-95" value="" style="endArrow=none;html=1;rounded=0;entryX=0.5;entryY=0;entryDx=0;entryDy=0;exitX=1;exitY=1;exitDx=0;exitDy=0;" parent="1" source="_fmQQ23UDMU28dtSd_eu-97" target="OF6cTdFt37tzbmLH_Fab-14" edge="1">
          <mxGeometry relative="1" as="geometry">
            <mxPoint x="3360" y="30" as="sourcePoint" />
            <mxPoint x="3620" y="220" as="targetPoint" />
          </mxGeometry>
        </mxCell>
        <mxCell id="_fmQQ23UDMU28dtSd_eu-96" value="N" style="resizable=0;html=1;whiteSpace=wrap;align=right;verticalAlign=bottom;" parent="_fmQQ23UDMU28dtSd_eu-95" connectable="0" vertex="1">
          <mxGeometry x="1" relative="1" as="geometry" />
        </mxCell>
        <mxCell id="_fmQQ23UDMU28dtSd_eu-97" value="보유" style="shape=rhombus;perimeter=rhombusPerimeter;whiteSpace=wrap;html=1;align=center;" parent="1" vertex="1">
          <mxGeometry x="3260" y="-30" width="120" height="60" as="geometry" />
        </mxCell>
        <mxCell id="_fmQQ23UDMU28dtSd_eu-98" value="" style="endArrow=none;html=1;rounded=0;exitX=0;exitY=0;exitDx=0;exitDy=0;entryX=0.5;entryY=1;entryDx=0;entryDy=0;" parent="1" source="_fmQQ23UDMU28dtSd_eu-97" target="OF6cTdFt37tzbmLH_Fab-170" edge="1">
          <mxGeometry relative="1" as="geometry">
            <mxPoint x="3320" y="-90" as="sourcePoint" />
            <mxPoint x="3480" y="-90" as="targetPoint" />
          </mxGeometry>
        </mxCell>
        <mxCell id="_fmQQ23UDMU28dtSd_eu-99" value="1" style="resizable=0;html=1;whiteSpace=wrap;align=right;verticalAlign=bottom;" parent="_fmQQ23UDMU28dtSd_eu-98" connectable="0" vertex="1">
          <mxGeometry x="1" relative="1" as="geometry" />
        </mxCell>
        <mxCell id="_fmQQ23UDMU28dtSd_eu-100" value="" style="endArrow=none;html=1;rounded=0;entryX=0;entryY=0;entryDx=0;entryDy=0;exitX=1;exitY=1;exitDx=0;exitDy=0;" parent="1" source="_fmQQ23UDMU28dtSd_eu-104" target="OF6cTdFt37tzbmLH_Fab-29" edge="1">
          <mxGeometry relative="1" as="geometry">
            <mxPoint x="3580" y="-230" as="sourcePoint" />
            <mxPoint x="3660" y="-220" as="targetPoint" />
          </mxGeometry>
        </mxCell>
        <mxCell id="_fmQQ23UDMU28dtSd_eu-101" value="N" style="resizable=0;html=1;whiteSpace=wrap;align=right;verticalAlign=bottom;" parent="_fmQQ23UDMU28dtSd_eu-100" connectable="0" vertex="1">
          <mxGeometry x="1" relative="1" as="geometry" />
        </mxCell>
        <mxCell id="_fmQQ23UDMU28dtSd_eu-102" value="" style="endArrow=none;html=1;rounded=0;entryX=1;entryY=1;entryDx=0;entryDy=0;exitX=0.311;exitY=0.181;exitDx=0;exitDy=0;exitPerimeter=0;" parent="1" source="_fmQQ23UDMU28dtSd_eu-104" target="OF6cTdFt37tzbmLH_Fab-170" edge="1">
          <mxGeometry relative="1" as="geometry">
            <mxPoint x="3220" y="-350" as="sourcePoint" />
            <mxPoint x="3240" y="-390" as="targetPoint" />
            <Array as="points" />
          </mxGeometry>
        </mxCell>
        <mxCell id="_fmQQ23UDMU28dtSd_eu-103" value="1" style="resizable=0;html=1;whiteSpace=wrap;align=right;verticalAlign=bottom;" parent="_fmQQ23UDMU28dtSd_eu-102" connectable="0" vertex="1">
          <mxGeometry x="1" relative="1" as="geometry" />
        </mxCell>
        <mxCell id="_fmQQ23UDMU28dtSd_eu-104" value="관리" style="shape=rhombus;perimeter=rhombusPerimeter;whiteSpace=wrap;html=1;align=center;" parent="1" vertex="1">
          <mxGeometry x="3320" y="-130" width="120" height="60" as="geometry" />
        </mxCell>
        <mxCell id="_fmQQ23UDMU28dtSd_eu-106" value="" style="endArrow=none;html=1;rounded=0;exitX=0.75;exitY=0;exitDx=0;exitDy=0;" parent="1" source="OF6cTdFt37tzbmLH_Fab-29" target="_fmQQ23UDMU28dtSd_eu-107" edge="1">
          <mxGeometry relative="1" as="geometry">
            <mxPoint x="3690" y="30" as="sourcePoint" />
            <mxPoint x="3860" y="-180" as="targetPoint" />
          </mxGeometry>
        </mxCell>
        <mxCell id="_fmQQ23UDMU28dtSd_eu-107" value="전화번호" style="ellipse;whiteSpace=wrap;html=1;align=center;" parent="1" vertex="1">
          <mxGeometry x="3662.499999999999" y="-10" width="100" height="40" as="geometry" />
        </mxCell>
        <mxCell id="_fmQQ23UDMU28dtSd_eu-111" value="" style="endArrow=none;html=1;rounded=0;exitX=0.5;exitY=0;exitDx=0;exitDy=0;" parent="1" source="OF6cTdFt37tzbmLH_Fab-29" target="_fmQQ23UDMU28dtSd_eu-112" edge="1">
          <mxGeometry relative="1" as="geometry">
            <mxPoint x="3710" y="-40" as="sourcePoint" />
            <mxPoint x="3870" y="-200" as="targetPoint" />
          </mxGeometry>
        </mxCell>
        <mxCell id="_fmQQ23UDMU28dtSd_eu-112" value="직급(부, 기)" style="ellipse;whiteSpace=wrap;html=1;align=center;" parent="1" vertex="1">
          <mxGeometry x="3512.499999999999" y="-20" width="100" height="40" as="geometry" />
        </mxCell>
        <mxCell id="_fmQQ23UDMU28dtSd_eu-114" value="" style="endArrow=none;html=1;rounded=0;entryX=1;entryY=1;entryDx=0;entryDy=0;exitX=0;exitY=0.5;exitDx=0;exitDy=0;" parent="1" source="_fmQQ23UDMU28dtSd_eu-115" target="OF6cTdFt37tzbmLH_Fab-14" edge="1">
          <mxGeometry relative="1" as="geometry">
            <mxPoint x="3710" y="510" as="sourcePoint" />
            <mxPoint x="3490" y="400" as="targetPoint" />
          </mxGeometry>
        </mxCell>
        <mxCell id="_fmQQ23UDMU28dtSd_eu-115" value="연식" style="ellipse;whiteSpace=wrap;html=1;align=center;" parent="1" vertex="1">
          <mxGeometry x="3671" y="490" width="100" height="40" as="geometry" />
        </mxCell>
        <mxCell id="_fmQQ23UDMU28dtSd_eu-119" value="" style="endArrow=none;html=1;rounded=0;entryX=1;entryY=0.5;entryDx=0;entryDy=0;exitX=0;exitY=0.5;exitDx=0;exitDy=0;" parent="1" source="_fmQQ23UDMU28dtSd_eu-120" target="OaOm-PFCFOyFSG8GFty_-9" edge="1">
          <mxGeometry relative="1" as="geometry">
            <mxPoint x="2692.5" y="760" as="sourcePoint" />
            <mxPoint x="2512.5" y="840" as="targetPoint" />
          </mxGeometry>
        </mxCell>
        <mxCell id="_fmQQ23UDMU28dtSd_eu-120" value="전화번호" style="ellipse;whiteSpace=wrap;html=1;align=center;" parent="1" vertex="1">
          <mxGeometry x="2715" y="1113.29" width="100" height="40" as="geometry" />
        </mxCell>
        <mxCell id="_fmQQ23UDMU28dtSd_eu-124" value="" style="endArrow=none;html=1;rounded=0;exitX=0;exitY=0.75;exitDx=0;exitDy=0;" parent="1" source="OF6cTdFt37tzbmLH_Fab-113" target="_fmQQ23UDMU28dtSd_eu-125" edge="1">
          <mxGeometry relative="1" as="geometry">
            <mxPoint x="1670" y="540" as="sourcePoint" />
            <mxPoint x="1660" y="520" as="targetPoint" />
          </mxGeometry>
        </mxCell>
        <mxCell id="_fmQQ23UDMU28dtSd_eu-125" value="주소" style="ellipse;whiteSpace=wrap;html=1;align=center;" parent="1" vertex="1">
          <mxGeometry x="1610" y="500" width="100" height="40" as="geometry" />
        </mxCell>
        <mxCell id="hYKyRv-bCFhbF054Gj5i-1" value="" style="endArrow=none;html=1;rounded=0;exitX=0.25;exitY=0;exitDx=0;exitDy=0;" parent="1" source="_fmQQ23UDMU28dtSd_eu-5" target="hYKyRv-bCFhbF054Gj5i-2" edge="1">
          <mxGeometry relative="1" as="geometry">
            <mxPoint x="2160" y="1063.29" as="sourcePoint" />
            <mxPoint x="1880" y="1003.29" as="targetPoint" />
          </mxGeometry>
        </mxCell>
        <mxCell id="hYKyRv-bCFhbF054Gj5i-2" value="시설명" style="ellipse;whiteSpace=wrap;html=1;align=center;" parent="1" vertex="1">
          <mxGeometry x="1830" y="983.29" width="100" height="40" as="geometry" />
        </mxCell>
        <mxCell id="hYKyRv-bCFhbF054Gj5i-3" value="" style="endArrow=none;html=1;rounded=0;exitX=0.25;exitY=0;exitDx=0;exitDy=0;" parent="1" source="OF6cTdFt37tzbmLH_Fab-170" target="hYKyRv-bCFhbF054Gj5i-5" edge="1">
          <mxGeometry relative="1" as="geometry">
            <mxPoint x="3160" y="-490" as="sourcePoint" />
            <mxPoint x="3120" y="-550" as="targetPoint" />
          </mxGeometry>
        </mxCell>
        <mxCell id="hYKyRv-bCFhbF054Gj5i-5" value="항공사명" style="ellipse;whiteSpace=wrap;html=1;align=center;" parent="1" vertex="1">
          <mxGeometry x="2907.499999999999" y="-340" width="100" height="40" as="geometry" />
        </mxCell>
        <mxCell id="hYKyRv-bCFhbF054Gj5i-6" value="" style="endArrow=none;html=1;rounded=0;exitX=0.5;exitY=0;exitDx=0;exitDy=0;" parent="1" source="OF6cTdFt37tzbmLH_Fab-170" target="Z0QFiiBBiSWytVI0mT_u-7" edge="1">
          <mxGeometry relative="1" as="geometry">
            <mxPoint x="3115" y="-430" as="sourcePoint" />
            <mxPoint x="3036.791793866684" y="-340.0738141903869" as="targetPoint" />
          </mxGeometry>
        </mxCell>
        <mxCell id="hYKyRv-bCFhbF054Gj5i-8" value="" style="endArrow=none;html=1;rounded=0;exitX=0.75;exitY=0;exitDx=0;exitDy=0;" parent="1" source="OF6cTdFt37tzbmLH_Fab-170" target="hYKyRv-bCFhbF054Gj5i-9" edge="1">
          <mxGeometry relative="1" as="geometry">
            <mxPoint x="3125" y="-420" as="sourcePoint" />
            <mxPoint x="3190" y="-530" as="targetPoint" />
          </mxGeometry>
        </mxCell>
        <mxCell id="hYKyRv-bCFhbF054Gj5i-9" value="주소" style="ellipse;whiteSpace=wrap;html=1;align=center;" parent="1" vertex="1">
          <mxGeometry x="3062.499999999999" y="-340" width="100" height="40" as="geometry" />
        </mxCell>
        <mxCell id="hYKyRv-bCFhbF054Gj5i-11" value="" style="endArrow=none;html=1;rounded=0;exitX=1;exitY=0;exitDx=0;exitDy=0;" parent="1" source="OF6cTdFt37tzbmLH_Fab-170" target="hYKyRv-bCFhbF054Gj5i-12" edge="1">
          <mxGeometry relative="1" as="geometry">
            <mxPoint x="3160" y="-490" as="sourcePoint" />
            <mxPoint x="3320" y="-490" as="targetPoint" />
          </mxGeometry>
        </mxCell>
        <mxCell id="hYKyRv-bCFhbF054Gj5i-12" value="공항 전화 번호" style="ellipse;whiteSpace=wrap;html=1;align=center;" parent="1" vertex="1">
          <mxGeometry x="3173.999999999999" y="-350" width="100" height="40" as="geometry" />
        </mxCell>
        <mxCell id="hYKyRv-bCFhbF054Gj5i-13" value="" style="endArrow=none;html=1;rounded=0;exitX=1;exitY=0.5;exitDx=0;exitDy=0;" parent="1" source="OF6cTdFt37tzbmLH_Fab-170" target="hYKyRv-bCFhbF054Gj5i-14" edge="1">
          <mxGeometry relative="1" as="geometry">
            <mxPoint x="3160" y="-490" as="sourcePoint" />
            <mxPoint x="3330" y="-440" as="targetPoint" />
          </mxGeometry>
        </mxCell>
        <mxCell id="hYKyRv-bCFhbF054Gj5i-14" value="국적" style="ellipse;whiteSpace=wrap;html=1;align=center;" parent="1" vertex="1">
          <mxGeometry x="3214.999999999999" y="-210" width="100" height="40" as="geometry" />
        </mxCell>
        <mxCell id="Z0QFiiBBiSWytVI0mT_u-7" value="항공사 번호" style="ellipse;whiteSpace=wrap;html=1;align=center;fontStyle=4;" parent="1" vertex="1">
          <mxGeometry x="2974.0017938666842" y="-380.0038141903869" width="100" height="40" as="geometry" />
        </mxCell>
        <mxCell id="Z0QFiiBBiSWytVI0mT_u-9" value="" style="endArrow=none;html=1;rounded=0;exitX=1;exitY=0.25;exitDx=0;exitDy=0;" parent="1" source="OF6cTdFt37tzbmLH_Fab-170" target="Z0QFiiBBiSWytVI0mT_u-10" edge="1">
          <mxGeometry relative="1" as="geometry">
            <mxPoint x="2920" y="-180" as="sourcePoint" />
            <mxPoint x="3270" y="-270" as="targetPoint" />
          </mxGeometry>
        </mxCell>
        <mxCell id="Z0QFiiBBiSWytVI0mT_u-10" value="대표 번호" style="ellipse;whiteSpace=wrap;html=1;align=center;" parent="1" vertex="1">
          <mxGeometry x="3220" y="-290" width="100" height="40" as="geometry" />
        </mxCell>
        <mxCell id="Z0QFiiBBiSWytVI0mT_u-11" value="바코드" style="ellipse;whiteSpace=wrap;html=1;align=center;fontStyle=4;" parent="1" vertex="1">
          <mxGeometry x="1470" y="360" width="100" height="40" as="geometry" />
        </mxCell>
        <mxCell id="Z0QFiiBBiSWytVI0mT_u-12" value="" style="endArrow=none;html=1;rounded=0;exitX=0.363;exitY=0.994;exitDx=0;exitDy=0;exitPerimeter=0;" parent="1" source="OF6cTdFt37tzbmLH_Fab-113" target="Z0QFiiBBiSWytVI0mT_u-14" edge="1">
          <mxGeometry relative="1" as="geometry">
            <mxPoint x="2005" y="481" as="sourcePoint" />
            <mxPoint x="1960" y="570" as="targetPoint" />
          </mxGeometry>
        </mxCell>
        <mxCell id="Z0QFiiBBiSWytVI0mT_u-14" value="국적" style="ellipse;whiteSpace=wrap;html=1;align=center;" parent="1" vertex="1">
          <mxGeometry x="1837.5" y="600" width="100" height="40" as="geometry" />
        </mxCell>
        <mxCell id="8NkFO-5GE_IwVz5Rescr-5" value="" style="endArrow=none;html=1;rounded=0;fontSize=12;startSize=8;endSize=8;curved=1;entryX=0;entryY=0;entryDx=0;entryDy=0;exitX=1;exitY=1;exitDx=0;exitDy=0;" parent="1" source="8NkFO-5GE_IwVz5Rescr-7" target="OaOm-PFCFOyFSG8GFty_-9" edge="1">
          <mxGeometry relative="1" as="geometry">
            <mxPoint x="2292.5" y="900" as="sourcePoint" />
            <mxPoint x="2472.5" y="880" as="targetPoint" />
          </mxGeometry>
        </mxCell>
        <mxCell id="8NkFO-5GE_IwVz5Rescr-6" value="1" style="resizable=0;html=1;whiteSpace=wrap;align=right;verticalAlign=bottom;" parent="8NkFO-5GE_IwVz5Rescr-5" connectable="0" vertex="1">
          <mxGeometry x="1" relative="1" as="geometry" />
        </mxCell>
        <mxCell id="8NkFO-5GE_IwVz5Rescr-7" value="관리" style="shape=rhombus;perimeter=rhombusPerimeter;whiteSpace=wrap;html=1;align=center;" parent="1" vertex="1">
          <mxGeometry x="2312.5" y="930" width="120" height="60" as="geometry" />
        </mxCell>
        <mxCell id="8NkFO-5GE_IwVz5Rescr-8" value="" style="endArrow=none;html=1;rounded=0;fontSize=12;startSize=8;endSize=8;curved=1;entryX=0.606;entryY=1.044;entryDx=0;entryDy=0;entryPerimeter=0;exitX=0.5;exitY=0;exitDx=0;exitDy=0;" parent="1" source="8NkFO-5GE_IwVz5Rescr-15" target="OF6cTdFt37tzbmLH_Fab-113" edge="1">
          <mxGeometry relative="1" as="geometry">
            <mxPoint x="2120" y="770" as="sourcePoint" />
            <mxPoint x="2220" y="550" as="targetPoint" />
          </mxGeometry>
        </mxCell>
        <mxCell id="8NkFO-5GE_IwVz5Rescr-9" value="N" style="resizable=0;html=1;whiteSpace=wrap;align=right;verticalAlign=bottom;" parent="8NkFO-5GE_IwVz5Rescr-8" connectable="0" vertex="1">
          <mxGeometry x="1" relative="1" as="geometry" />
        </mxCell>
        <mxCell id="8NkFO-5GE_IwVz5Rescr-11" value="" style="endArrow=none;html=1;rounded=0;fontSize=12;startSize=8;endSize=8;curved=1;exitX=0;exitY=0;exitDx=0;exitDy=0;" parent="1" source="8NkFO-5GE_IwVz5Rescr-7" target="8NkFO-5GE_IwVz5Rescr-14" edge="1">
          <mxGeometry relative="1" as="geometry">
            <mxPoint x="2212.5" y="800" as="sourcePoint" />
            <mxPoint x="2232.5" y="830" as="targetPoint" />
          </mxGeometry>
        </mxCell>
        <mxCell id="8NkFO-5GE_IwVz5Rescr-12" value="N" style="resizable=0;html=1;whiteSpace=wrap;align=right;verticalAlign=bottom;" parent="8NkFO-5GE_IwVz5Rescr-11" connectable="0" vertex="1">
          <mxGeometry x="1" relative="1" as="geometry" />
        </mxCell>
        <mxCell id="8NkFO-5GE_IwVz5Rescr-14" value="셔틀" style="whiteSpace=wrap;html=1;align=center;" parent="1" vertex="1">
          <mxGeometry x="2182.5" y="810" width="100" height="40" as="geometry" />
        </mxCell>
        <mxCell id="8NkFO-5GE_IwVz5Rescr-15" value="이용" style="shape=rhombus;perimeter=rhombusPerimeter;whiteSpace=wrap;html=1;align=center;" parent="1" vertex="1">
          <mxGeometry x="2082.5" y="650" width="120" height="60" as="geometry" />
        </mxCell>
        <mxCell id="8NkFO-5GE_IwVz5Rescr-16" value="" style="endArrow=none;html=1;rounded=0;fontSize=12;startSize=8;endSize=8;curved=1;entryX=0.5;entryY=0;entryDx=0;entryDy=0;exitX=0.5;exitY=1;exitDx=0;exitDy=0;" parent="1" source="8NkFO-5GE_IwVz5Rescr-15" target="8NkFO-5GE_IwVz5Rescr-14" edge="1">
          <mxGeometry relative="1" as="geometry">
            <mxPoint x="2200" y="850" as="sourcePoint" />
            <mxPoint x="2360" y="850" as="targetPoint" />
          </mxGeometry>
        </mxCell>
        <mxCell id="8NkFO-5GE_IwVz5Rescr-17" value="1" style="resizable=0;html=1;whiteSpace=wrap;align=right;verticalAlign=bottom;" parent="8NkFO-5GE_IwVz5Rescr-16" connectable="0" vertex="1">
          <mxGeometry x="1" relative="1" as="geometry">
            <mxPoint x="9" as="offset" />
          </mxGeometry>
        </mxCell>
        <mxCell id="8NkFO-5GE_IwVz5Rescr-19" value="" style="endArrow=none;html=1;rounded=0;fontSize=12;startSize=8;endSize=8;curved=1;exitX=1;exitY=0;exitDx=0;exitDy=0;" parent="1" source="8NkFO-5GE_IwVz5Rescr-14" target="8NkFO-5GE_IwVz5Rescr-21" edge="1">
          <mxGeometry relative="1" as="geometry">
            <mxPoint x="2262.5" y="790" as="sourcePoint" />
            <mxPoint x="2332.5" y="780" as="targetPoint" />
          </mxGeometry>
        </mxCell>
        <mxCell id="8NkFO-5GE_IwVz5Rescr-21" value="출발시간" style="ellipse;whiteSpace=wrap;html=1;align=center;" parent="1" vertex="1">
          <mxGeometry x="2282.5" y="760" width="100" height="40" as="geometry" />
        </mxCell>
        <mxCell id="8NkFO-5GE_IwVz5Rescr-22" value="" style="endArrow=none;html=1;rounded=0;fontSize=12;startSize=8;endSize=8;curved=1;exitX=1;exitY=0.5;exitDx=0;exitDy=0;" parent="1" source="8NkFO-5GE_IwVz5Rescr-14" target="8NkFO-5GE_IwVz5Rescr-23" edge="1">
          <mxGeometry relative="1" as="geometry">
            <mxPoint x="2312.5" y="820" as="sourcePoint" />
            <mxPoint x="2412.5" y="830" as="targetPoint" />
          </mxGeometry>
        </mxCell>
        <mxCell id="8NkFO-5GE_IwVz5Rescr-23" value="도착지" style="ellipse;whiteSpace=wrap;html=1;align=center;" parent="1" vertex="1">
          <mxGeometry x="2332.5" y="840" width="100" height="40" as="geometry" />
        </mxCell>
        <mxCell id="8NkFO-5GE_IwVz5Rescr-24" value="" style="endArrow=none;html=1;rounded=0;fontSize=12;startSize=8;endSize=8;curved=1;exitX=0;exitY=0.5;exitDx=0;exitDy=0;" parent="1" source="8NkFO-5GE_IwVz5Rescr-14" target="8NkFO-5GE_IwVz5Rescr-27" edge="1">
          <mxGeometry relative="1" as="geometry">
            <mxPoint x="2152.5" y="820" as="sourcePoint" />
            <mxPoint x="2112.5" y="810" as="targetPoint" />
          </mxGeometry>
        </mxCell>
        <mxCell id="8NkFO-5GE_IwVz5Rescr-27" value="요금" style="ellipse;whiteSpace=wrap;html=1;align=center;" parent="1" vertex="1">
          <mxGeometry x="2062.5" y="790" width="100" height="40" as="geometry" />
        </mxCell>
        <mxCell id="8NkFO-5GE_IwVz5Rescr-28" value="" style="endArrow=none;html=1;rounded=0;fontSize=12;startSize=8;endSize=8;curved=1;exitX=0;exitY=1;exitDx=0;exitDy=0;" parent="1" source="8NkFO-5GE_IwVz5Rescr-14" target="8NkFO-5GE_IwVz5Rescr-30" edge="1">
          <mxGeometry relative="1" as="geometry">
            <mxPoint x="2192.5" y="850" as="sourcePoint" />
            <mxPoint x="2166.6760219903654" y="870.8206761306819" as="targetPoint" />
          </mxGeometry>
        </mxCell>
        <mxCell id="8NkFO-5GE_IwVz5Rescr-30" value="예약번호" style="ellipse;whiteSpace=wrap;html=1;align=center;fontStyle=4;" parent="1" vertex="1">
          <mxGeometry x="2092.4960219903655" y="890.000676130682" width="100" height="40" as="geometry" />
        </mxCell>
        <mxCell id="ZF7oStrIcARMpWx6uAy8-2" value="" style="endArrow=none;html=1;rounded=0;entryX=0;entryY=1;entryDx=0;entryDy=0;exitX=0.5;exitY=0;exitDx=0;exitDy=0;" parent="1" source="ZF7oStrIcARMpWx6uAy8-6" target="OF6cTdFt37tzbmLH_Fab-170" edge="1">
          <mxGeometry relative="1" as="geometry">
            <mxPoint x="2770" y="130" as="sourcePoint" />
            <mxPoint x="2900" y="-50" as="targetPoint" />
          </mxGeometry>
        </mxCell>
        <mxCell id="ZF7oStrIcARMpWx6uAy8-3" value="N" style="resizable=0;html=1;whiteSpace=wrap;align=right;verticalAlign=bottom;" parent="ZF7oStrIcARMpWx6uAy8-2" connectable="0" vertex="1">
          <mxGeometry x="1" relative="1" as="geometry" />
        </mxCell>
        <mxCell id="ZF7oStrIcARMpWx6uAy8-6" value="소속" style="shape=rhombus;perimeter=rhombusPerimeter;whiteSpace=wrap;html=1;align=center;" parent="1" vertex="1">
          <mxGeometry x="2660" y="195.07" width="120" height="60" as="geometry" />
        </mxCell>
        <mxCell id="ZF7oStrIcARMpWx6uAy8-8" value="" style="endArrow=none;html=1;rounded=0;exitX=0.5;exitY=1;exitDx=0;exitDy=0;entryX=0;entryY=0;entryDx=0;entryDy=0;" parent="1" source="ZF7oStrIcARMpWx6uAy8-6" target="OF6cTdFt37tzbmLH_Fab-1" edge="1">
          <mxGeometry relative="1" as="geometry">
            <mxPoint x="2920" y="250" as="sourcePoint" />
            <mxPoint x="3080" y="250" as="targetPoint" />
          </mxGeometry>
        </mxCell>
        <mxCell id="ZF7oStrIcARMpWx6uAy8-9" value="1" style="resizable=0;html=1;whiteSpace=wrap;align=right;verticalAlign=bottom;" parent="ZF7oStrIcARMpWx6uAy8-8" connectable="0" vertex="1">
          <mxGeometry x="1" relative="1" as="geometry" />
        </mxCell>
        <mxCell id="9SZLbC5A-kB07yrINCI7-1" value="주소" style="ellipse;whiteSpace=wrap;html=1;align=center;" vertex="1" parent="1">
          <mxGeometry x="2000" y="255.07" width="100" height="40" as="geometry" />
        </mxCell>
        <mxCell id="9SZLbC5A-kB07yrINCI7-2" value="" style="endArrow=none;html=1;rounded=0;entryX=0.5;entryY=1;entryDx=0;entryDy=0;exitX=0.5;exitY=0;exitDx=0;exitDy=0;" edge="1" parent="1" source="OF6cTdFt37tzbmLH_Fab-113" target="9SZLbC5A-kB07yrINCI7-1">
          <mxGeometry relative="1" as="geometry">
            <mxPoint x="1770" y="500" as="sourcePoint" />
            <mxPoint x="1930" y="500" as="targetPoint" />
          </mxGeometry>
        </mxCell>
        <mxCell id="9SZLbC5A-kB07yrINCI7-3" value="성별" style="ellipse;whiteSpace=wrap;html=1;align=center;" vertex="1" parent="1">
          <mxGeometry x="1950" y="600" width="100" height="40" as="geometry" />
        </mxCell>
        <mxCell id="9SZLbC5A-kB07yrINCI7-4" value="" style="endArrow=none;html=1;rounded=0;entryX=0.5;entryY=1;entryDx=0;entryDy=0;exitX=0.5;exitY=0;exitDx=0;exitDy=0;" edge="1" parent="1" source="9SZLbC5A-kB07yrINCI7-3" target="OF6cTdFt37tzbmLH_Fab-113">
          <mxGeometry relative="1" as="geometry">
            <mxPoint x="1770" y="500" as="sourcePoint" />
            <mxPoint x="1930" y="500" as="targetPoint" />
          </mxGeometry>
        </mxCell>
        <mxCell id="9SZLbC5A-kB07yrINCI7-5" value="" style="endArrow=none;html=1;rounded=0;entryX=0.5;entryY=1;entryDx=0;entryDy=0;exitX=0.5;exitY=0;exitDx=0;exitDy=0;" edge="1" parent="1" source="OaOm-PFCFOyFSG8GFty_-9" target="OF6cTdFt37tzbmLH_Fab-50">
          <mxGeometry relative="1" as="geometry">
            <mxPoint x="2310" y="1100" as="sourcePoint" />
            <mxPoint x="2470" y="1100" as="targetPoint" />
          </mxGeometry>
        </mxCell>
        <mxCell id="9SZLbC5A-kB07yrINCI7-7" value="" style="endArrow=none;html=1;rounded=0;entryX=0.5;entryY=1;entryDx=0;entryDy=0;exitX=0.75;exitY=0;exitDx=0;exitDy=0;" edge="1" parent="1" source="OaOm-PFCFOyFSG8GFty_-9" target="OF6cTdFt37tzbmLH_Fab-47">
          <mxGeometry relative="1" as="geometry">
            <mxPoint x="2450" y="950" as="sourcePoint" />
            <mxPoint x="2610" y="950" as="targetPoint" />
          </mxGeometry>
        </mxCell>
        <mxCell id="9SZLbC5A-kB07yrINCI7-8" value="전화번호" style="ellipse;whiteSpace=wrap;html=1;align=center;" vertex="1" parent="1">
          <mxGeometry x="2830" y="120" width="100" height="40" as="geometry" />
        </mxCell>
        <mxCell id="9SZLbC5A-kB07yrINCI7-9" value="" style="endArrow=none;html=1;rounded=0;exitX=1;exitY=1;exitDx=0;exitDy=0;entryX=0.25;entryY=0;entryDx=0;entryDy=0;" edge="1" parent="1" source="9SZLbC5A-kB07yrINCI7-8" target="OF6cTdFt37tzbmLH_Fab-63">
          <mxGeometry relative="1" as="geometry">
            <mxPoint x="2780" y="170" as="sourcePoint" />
            <mxPoint x="2940" y="170" as="targetPoint" />
          </mxGeometry>
        </mxCell>
      </root>
    </mxGraphModel>
  </diagram>
</mxfile>
